<?xml version="1.0" encoding="UTF-8" standalone="no"?><!DOCTYPE svg PUBLIC "-//W3C//DTD SVG 1.1//EN" "http://www.w3.org/Graphics/SVG/1.1/DTD/svg11.dtd">
<svg width="1.5em" height="1.5em" viewBox="0 0 12 12" version="1.1" 
    xmlns="http://www.w3.org/2000/svg" 
    xmlns:xlink="http://www.w3.org/1999/xlink" xml:space="preserve" 
    xmlns:serif="http://www.serif.com/" fill="#52c41a">
    <path d="M8.504,3.871l-0.628,0c-0.136,0 -0.266,0.065 -0.347,0.178l-2.105,2.919l-0.953,-1.323c-0.081,-0.111 -0.209,-0.178 -0.347,-0.178l-0.628,0c-0.088,0 -0.138,0.099 -0.088,0.17l1.669,2.314c0.08,0.112 0.209,0.178 0.346,0.178c0.138,0 0.267,-0.066 0.347,-0.178l2.82,-3.91c0.052,-0.071 0.002,-0.17 -0.086,-0.17Z" style="fill-rule:nonzero;"/>
    <path d="M6,0c-3.313,0 -6,2.687 -6,6c0,3.313 2.687,6 6,6c3.313,0 6,-2.687 6,-6c0,-3.313 -2.687,-6 -6,-6Zm0,10.982c-2.751,0 -4.982,-2.231 -4.982,-4.982c0,-2.751 2.231,-4.982 4.982,-4.982c2.751,0 4.982,2.231 4.982,4.982c0,2.751 -2.231,4.982 -4.982,4.982Z" style="fill-rule:nonzero;"/>
</svg>