<svg viewBox="0 0 205 146" xmlns="http://www.w3.org/2000/svg" fill-rule="evenodd" clip-rule="evenodd" stroke-linejoin="round" stroke-miterlimit="1.41"><path d="M103.77 6.47L74.84 129.78l93.7 14.05L203.3 21.05 103.77 6.47z" fill="#fff"/><path d="M103.86 5.87l1.8.26 46.28 6.68 51.47 7.44.13.03.13.05.11.08.1.09.09.1.06.13.05.13.02.13v.14l-.03.14-16 56.51.11.03-17.62 62.68-1.02 3.62-.05.15-.08.15-.1.13-.13.11-.14.1-.15.06-.16.04-.17.02-.17-.01-56.36-8.36-37.36-5.55-.19-.05-.18-.07-.16-.1-.15-.14-.12-.15-.1-.17-.06-.18-.04-.2v-.19l.02-.19 3.02-12.91 4.84-20.73 3.81-16.3 1.62-6.83 1.59-6.72 3.1-12.94 5.54-22.75 4.07-16.43 1.8-7.2.1-.37.03-.1.05-.08.06-.08.07-.07.08-.06.1-.04.1-.03h.2zm-1.13 8.23l-3.59 16.22-5.03 22.34-2.91 12.67-1.53 6.59-1.56 6.69-3.75 15.95-4.79 20.31-.02.02-3.26 13.91 36.77 5.57-.04.08 54.78 8.21 1.3-4.58 17.55-61.6 15.61-54.77-50.53-7.5-46.25-6.87-1.23-.18-1.52 6.94z"/><path d="M115.49 20.87l.74.01 1.68.08 2.3.18 1.31.16.68.1.68.1 1.63.29 2.07.37 5.15.94 6.02 1.12 6.27 1.17 10.91 2.06 4.53.86.18.03.5.7-.7.5-.18-.02-4.57-.68-10.97-1.64-6.32-.95-6.04-.92-5.18-.81-2.08-.33-1.63-.27-.68-.12-.67-.13-1.28-.28-2.24-.59-1.62-.48-.7-.23-.04-.01-.5-.7.7-.5h.05zM110.89 31.73l1.13.07 2.57.21 3.54.38 2.01.26 1.04.15 1.05.16 2.51.42 3.2.53 7.95 1.37 9.28 1.6 9.69 1.69 16.83 2.95 7 1.23.27.05.5.7-.7.5-.27-.04-7.02-1.04-16.9-2.54-9.73-1.46-9.32-1.41-7.97-1.23-3.2-.5-2.5-.4-1.06-.18-1.04-.18-1.98-.4-3.48-.76-2.5-.62-1.1-.29-.05-.01-.5-.7.7-.5h.05zM109.33 42.61l.88.03 2 .11 2.73.24 1.55.19.8.1.82.13 1.93.32 2.46.42 6.14 1.06 7.16 1.26 7.47 1.32 12.98 2.31 5.4.97.2.04.51.7-.7.5-.21-.03-5.42-.78-13.06-1.9-7.5-1.1-7.2-1.06-6.15-.92-2.47-.38-1.93-.3-.82-.14-.8-.15-1.52-.31-2.68-.64-1.92-.52-.84-.25-.05-.01-.5-.7.7-.5h.04zM109.4 53.4l2.18.1 1.22.12.64.07.64.08 1.53.22 1.95.3 4.85.75 5.66.9 5.9.94 10.28 1.66 4.26.7.17.02.52.7-.7.51-.16-.02-4.3-.51-10.32-1.24-5.93-.72-5.7-.7-4.87-.62-1.95-.25-1.53-.21-.64-.1-.63-.1-1.21-.24-2.12-.5-1.51-.42-.67-.21-.03-.01-.52-.7.69-.51h.03l.7-.02 1.58.01zM105.21 63.6l.92.04 2.08.13 2.86.27 1.62.2.83.13.85.13 2.02.35 2.57.44 6.41 1.14 7.48 1.34 7.8 1.42 13.55 2.47 5.63 1.03.22.04.51.7-.7.5-.23-.03-5.66-.85L140.34 71l-7.83-1.2-7.51-1.14-6.43-1-2.58-.4-2.02-.34-.85-.15-.83-.15-1.6-.33-2.79-.67-2.01-.55-.88-.26h-.04l-.5-.71.7-.5h.04zM106.28 74.65l.32.04.32.04.77.14.97.18 2.43.48 2.82.57 2.95.6 5.12 1.08 2.13.45.09.01.5.7-.7.51-.09-.01-2.16-.27-5.2-.65-2.98-.39-2.86-.38-2.44-.33-.98-.15-.77-.12-.32-.06-.32-.07-.6-.17-1.03-.37-.75-.34-.32-.17h-.01l-.5-.7.7-.5.01-.01.36-.05.81-.08 1.11-.02.62.04zM101.37 97.49l1.16.09.6.06.62.08 1.46.2 1.85.27 4.61.7 5.38.81 5.62.87 9.76 1.53 4.06.64.15.03.53.68-.69.53-.16-.02-4.08-.46-9.82-1.1-5.64-.65-5.41-.63-4.63-.55-1.86-.23-1.46-.2-.6-.08-.6-.1-1.16-.22-2-.47-1.45-.4-.63-.2-.03-.02-.53-.68.69-.53h.03l.66-.02h1.5l2.07.07zM94.99 106.75l.84.03 1.92.1 2.63.21 1.49.18.77.1.78.12 1.86.3 2.36.4 5.9 1.02 6.88 1.2 7.17 1.28 12.47 2.21 5.18.93.2.03.51.7-.7.51-.2-.03-5.21-.74-12.54-1.8-7.21-1.04-6.9-1.01-5.93-.88-2.37-.37-1.86-.29-.78-.13-.76-.14-1.47-.3-2.57-.62-1.85-.5-.8-.25-.05-.01-.5-.7.7-.5h.04zM94.3 116.35l.8.07.4.05.42.07.98.17 1.25.24 3.12.6 3.63.74 3.79.76 6.58 1.36 2.73.56.11.03.5.7-.7.5-.12-.02-2.76-.38-6.66-.94-3.82-.54-3.67-.54-3.14-.47-1.25-.2-.99-.16-.4-.08-.41-.08-.78-.2-1.34-.44-.96-.38-.42-.18-.02-.01-.5-.7.71-.5h.02l.46-.04 1.03-.04 1.41.05z"/><g><ellipse cx="29.82" cy="134.33" rx="10.15" ry="6.96" fill="#b8b8b8"/><path d="M29.7 128.3h-.13l-.12.01-.12.01h-.12l-.13.02h-.12l-.11.02-.12.01-.12.01-.12.02-.12.01-.11.02-.12.02-.12.01-.11.02-.12.02-.11.02-.11.02-.12.03-.1.02-.12.02-.11.03-.11.03-.11.02-.1.03-.12.03-.1.03-.11.03-.1.03-.11.03-.1.04-.1.03-.11.03-.1.04-.1.04-.1.03-.1.04-.1.04-.1.04-.1.04-.1.04-.09.04-.1.04-.09.04-.09.05-.1.04-.05.03-.03.02-.1.04-.08.05-.09.04-.09.05-.08.05-.09.05-.08.05-.09.04-.08.05-.08.06-.08.05-.08.05-.08.05-.07.05-.08.06-.07.05-.08.06-.07.05-.07.06-.07.05-.07.06-.07.05-.07.06-.06.06-.07.06-.06.05-.07.06-.06.06-.06.06-.06.06-.05.06-.06.06-.06.06-.05.06-.05.06-.06.06-.05.07-.05.06-.05.06-.04.06-.05.06-.04.07-.05.06-.04.06-.04.07-.04.06-.04.06-.04.07-.03.06-.04.06-.03.07-.03.06-.03.07-.03.06-.03.07-.03.06-.03.06-.02.07-.02.06-.03.07-.02.06-.02.07-.02.06-.02.07-.01.06-.02.07-.01.06-.01.07-.02.06v.07l-.02.06v.07l-.01.06v.07l-.01.07v.53l.01.06v.07l.02.06v.07l.02.06.01.06.02.07.01.06.02.07.01.06.02.06.02.06.02.07.02.06.02.06.03.06.02.07.03.06.03.06.02.06.03.06.03.06.04.06.03.06.03.06.04.07.04.06.03.06.04.05.04.06.04.06.05.06.04.06.04.06.05.06.05.06.04.05.05.06.05.06.05.06.06.05.05.06.06.05.05.06.06.06.06.05.06.06.06.05.06.05.06.06.06.05.07.05.06.05.07.06.07.05.07.05.07.05.06.05.08.05.07.05.08.05.07.04.08.05.08.05.07.05.08.04.08.05.08.04.09.04.08.05.08.04.09.04.08.05.09.04.09.04.08.04.1.04.08.03.1.04.08.04.1.03.09.04.1.03.09.04.1.03.09.03.1.04.1.03.1.03.09.03.1.03.1.02.1.03.1.03.1.02.1.03.11.02.1.02.11.03.1.02.11.02.11.02.1.02.12.01.1.02.11.02.11.01.11.02.11.01.12.01.1.01.12.01.11.01.11.01h.12l.11.02H29l.12.01H30.05l.12-.01h.11l.12-.02h.11l.12-.01.11-.01.11-.01.12-.02h.1l.12-.02.11-.02.11-.01.11-.02.11-.02.11-.02.11-.01.1-.03.12-.02.1-.02.1-.02.11-.02.1-.03.11-.02.1-.03.1-.03.11-.02.1-.03.1-.03.1-.03.1-.03.1-.03.1-.04.1-.03.09-.03.1-.04.09-.03.1-.04.08-.04.1-.03.09-.04.09-.04.08-.04.1-.04.08-.04.09-.04.08-.04.09-.04.08-.05.08-.04.08-.04.09-.05.08-.04.07-.05.08-.04.08-.05.07-.05.08-.05.07-.04.07-.04v-.01l.08-.05.07-.05.07-.05.07-.05.07-.05.06-.05.07-.05.06-.05.07-.05.06-.06.06-.05.06-.05.06-.05.06-.06.05-.05.06-.05.05-.06.05-.05.06-.06.05-.05.05-.06.04-.05.05-.05.05-.06.04-.06.05-.05.04-.06.04-.05.04-.06.04-.05.04-.06.03-.05.04-.06.03-.06.04-.05.03-.06.03-.05.03-.06.03-.05.02-.06.03-.05.03-.06.02-.06.02-.05.03-.06.01-.05.03-.06.01-.05.02-.06.02-.05.01-.06.02-.05.01-.06.01-.05.01-.06.02-.05v-.06l.01-.05v-.06l.02-.05V134.55l.01-.06v-.33l-.01-.06v-.05l-.01-.06-.01-.05-.01-.05-.01-.06-.01-.05-.01-.06-.02-.05v-.05l-.02-.06-.02-.05-.02-.06-.01-.05-.02-.05-.02-.06-.02-.05-.02-.05-.03-.06-.02-.05-.03-.05-.02-.06-.03-.05-.03-.05-.03-.06-.02-.04v-.01l-.04-.06-.03-.05-.03-.05-.04-.06-.03-.05-.04-.05-.04-.06-.03-.05-.04-.05-.04-.06-.05-.05-.04-.05-.04-.06-.05-.05-.05-.05-.04-.05-.05-.06-.05-.05-.05-.05-.06-.05-.05-.05-.05-.06-.06-.05-.05-.05-.06-.05-.06-.05-.06-.05-.06-.06-.06-.05-.02-.01-.04-.04-.06-.05-.07-.05-.06-.05-.07-.05-.06-.05-.07-.05-.07-.05-.02-.02-.05-.04-.07-.05-.07-.05-.07-.05-.07-.05-.08-.05-.07-.05-.08-.05-.08-.05-.07-.05-.08-.04-.08-.05-.08-.05-.09-.04-.07-.04v-.01l-.1-.05-.07-.05-.09-.05-.08-.05-.09-.05-.09-.04-.09-.05-.08-.05-.1-.04-.09-.05-.09-.04-.1-.04-.09-.05-.1-.04-.09-.04-.1-.04-.1-.04-.1-.04-.1-.04-.1-.04-.1-.04-.1-.04-.1-.03-.07-.03h-.03l-.1-.05-.11-.04-.1-.04-.11-.04-.11-.03-.11-.04-.11-.04-.11-.03-.11-.04-.11-.03-.12-.03-.11-.03-.11-.03-.12-.03-.12-.03-.1-.03h-.01l-.12-.03-.12-.03-.12-.03-.12-.03-.12-.03-.12-.03-.09-.01-.04-.01h-.12zm.25-1.9l.14-.02.14-.02.14-.02.14-.02.14-.02.14-.02H30.93l.14-.02h.14l.14-.02h.28l.13-.01H32.72l.14.02H33.04l.1.02.13.01.13.02.14.02.13.02.13.02.13.02.13.02.14.02.13.03.13.03.13.02.13.03.13.03.12.03.13.03.13.04.12.03.13.04.13.03.12.04.13.04.12.04.12.04.02.01.1.04.12.05.12.05.12.05.12.05.11.05.12.06.11.05.12.06.1.06.12.05.11.06.11.06.11.07.09.04.02.02.1.06.11.07.1.07.11.07.1.07.1.07.1.07.08.06.03.02.1.07.09.08.1.08.09.08.1.08.08.08.1.08.08.09h.01l.08.08.08.09.09.09.08.09.09.09.07.09.08.09.08.09.08.1.07.09.08.1.07.09.07.1.07.1.07.1.07.1.06.1.06.1.07.1.06.1.05.11.02.03.04.08.06.1.05.11.05.11.05.11.05.11.04.11.05.11.04.12.04.11.04.11.04.12.03.12.03.11.03.12.03.12.03.12.02.12.03.12.02.12.01.12.02.12.01.12.01.12.01.12.01.13v.74l-.02.12v.12l-.02.13-.02.12-.02.12-.02.12-.02.12-.02.12-.03.11-.03.12-.03.12-.03.11-.04.12-.03.11-.04.12-.04.1-.05.12-.04.11-.05.11-.05.11-.05.11-.05.1-.05.12-.05.1-.06.1-.06.1-.06.11-.06.1-.06.1-.07.1-.06.1-.07.1-.07.1-.07.1-.07.09-.08.1-.07.09-.08.09-.08.09-.07.09-.08.09-.08.09-.09.09-.08.08-.09.09-.08.08-.09.08-.09.09-.09.08-.09.08-.09.08-.1.07-.09.08-.1.08-.09.07-.1.08-.1.07-.1.07-.1.07-.1.07-.1.07-.1.07-.1.07-.11.06-.02.01-.09.06-.1.06-.12.06-.1.06-.11.07-.12.06-.1.05-.12.06-.11.06-.12.05-.11.06-.12.05-.12.05-.12.06-.11.05-.12.05-.12.04-.12.05-.13.05-.12.04-.12.05-.13.04-.12.04-.13.04-.12.04-.13.04-.13.04-.12.04-.13.03-.13.04-.13.03-.13.03-.13.03-.14.03-.13.03-.13.03-.14.03-.13.02-.14.02-.13.03-.14.02-.13.02-.14.02-.14.02-.14.02-.13.01-.14.02-.14.01-.14.02h-.14l-.14.02h-.15l-.14.01-.14.01h-.14l-.15.01H29.53l-.15-.01h-.14l-.15-.02h-.14l-.14-.02-.14-.01-.14-.01-.14-.02-.14-.01-.14-.02-.14-.02-.14-.02-.14-.02-.13-.02-.14-.02-.14-.03-.13-.02-.14-.03-.13-.02-.13-.03-.14-.03-.13-.03-.13-.03-.13-.04-.13-.03-.13-.03-.13-.04-.13-.04-.12-.03-.13-.04-.13-.04-.12-.04-.13-.05-.12-.04-.12-.04-.12-.05-.13-.04-.12-.05-.12-.05-.11-.05-.12-.05-.12-.05-.12-.05-.11-.05-.12-.06-.1-.05-.12-.06-.11-.05-.11-.06-.11-.06-.11-.06-.11-.06-.1-.06-.12-.06-.1-.07-.1-.06-.1-.07-.11-.06-.1-.07-.1-.07-.1-.07-.1-.06-.1-.07-.1-.08-.09-.07-.1-.07-.08-.08-.1-.07-.09-.08-.09-.07-.08-.08-.1-.08-.08-.08-.08-.08-.09-.08-.08-.08-.08-.08-.08-.09-.08-.08-.08-.08-.07-.1-.08-.08-.07-.08-.07-.1-.07-.08-.07-.1-.07-.08-.07-.1-.06-.09-.07-.09-.06-.1-.06-.09-.06-.1-.06-.1-.05-.09-.06-.1-.05-.1-.05-.1-.05-.1-.05-.1-.05-.1-.04-.1-.04-.1-.05-.1-.03-.1-.04-.11-.04-.1-.03-.11-.04-.11-.03-.1-.03-.11-.02-.11-.03-.11-.02-.11-.02-.11-.02-.11-.02-.11-.01-.11-.02-.11V135l-.02-.12v-.11l-.01-.11V134.1l.01-.12.01-.11.01-.11.02-.12.01-.1.02-.12.02-.1.02-.12.02-.1.03-.11.03-.11.03-.1.03-.11.03-.1.03-.11.04-.1.04-.11.04-.1.04-.1.04-.1.05-.1.04-.1.05-.1.05-.1.05-.1.06-.1.05-.09.06-.1.05-.09.06-.1.06-.08.06-.1.07-.08.06-.1.07-.08.07-.1.06-.08.07-.08.08-.09.07-.08.07-.09.08-.08.07-.08.08-.08.08-.08.08-.08.08-.08.08-.08.09-.07.08-.08.09-.07.09-.08.08-.07.1-.07.08-.07.1-.07.09-.07.09-.07.1-.07.09-.06.1-.07.1-.06.1-.07.1-.06.1-.06.1-.06.1-.06.1-.06.1-.06.1-.05.11-.06.1-.06.12-.05.1-.05.11-.06.11-.05.11-.05.12-.05.04-.02.07-.03.11-.04.12-.05.11-.05.12-.04.11-.04.12-.05.12-.04.12-.04.12-.04.12-.04.12-.03.12-.04.12-.04.12-.03.13-.03.12-.04.13-.03.12-.03.13-.03.12-.02.13-.03.13-.03.13-.02.13-.03.12-.02.13-.02.14-.02.13-.02.13-.02.13-.02.13-.01.14-.02.13-.01.13-.01.14-.01.13-.02h.14l.13-.01h.14l.14-.01h.13l.14-.01H29.82l.04-.01.1-.02z"/><ellipse cx="53.88" cy="134.39" rx="10.15" ry="6.96" fill="#b8b8b8"/><path d="M53.75 128.36h-.12l-.12.01-.12.01h-.12l-.12.02h-.12l-.12.02-.12.01-.12.01-.12.02-.12.01-.11.02-.12.02-.12.01-.11.02-.11.02-.12.02-.11.02-.11.03-.12.02-.1.03-.12.02-.1.03-.12.02-.1.03-.11.03-.11.03-.1.03-.11.03-.11.03-.1.04-.1.03-.11.03-.1.04-.1.04-.1.03-.1.04-.1.04-.1.04-.1.04-.1.04-.09.04-.1.04-.09.04-.09.05-.1.04-.04.03-.04.02-.1.04-.08.05-.09.04-.09.05-.08.05-.09.05-.08.05-.08.05-.09.05-.08.05-.08.05-.08.05-.07.05-.08.05-.08.06-.07.05-.08.06-.07.05-.07.06-.07.05-.07.06-.07.05-.07.06-.06.06-.07.06-.06.05-.06.06-.07.06-.06.06-.06.06-.05.06-.06.06-.06.06-.05.06-.05.06-.06.07-.05.06-.05.06-.04.06-.05.06-.05.07-.04.06-.04.06-.05.06-.04.07-.04.06-.04.06-.03.07-.04.06-.03.07-.04.06-.03.06-.03.07-.03.06-.03.07-.03.06-.02.07-.03.06-.02.06-.03.07-.02.06-.02.07-.02.06-.01.07-.02.06-.02.07-.01.06-.01.07-.01.06-.02.07v.06l-.01.07-.01.07v.06l-.01.07v.53l.01.06.01.07.01.06.01.07.01.06.01.07.02.06.01.06.02.07.01.06.02.06.02.07.02.06.02.06.03.06.02.06.02.07.03.06.03.06.03.06.03.06.03.06.03.06.03.06.04.07.03.06.04.06.03.06.04.06.04.05.04.06.05.06.04.06.04.06.05.06.05.06.05.05.04.06.05.06.06.06.05.05.05.06.06.06.05.05.06.06.06.05.06.06.06.05.06.05.06.06.07.05.06.05.07.06.06.05.07.05.07.05.07.05.07.05.07.05.08.05.07.05.08.04.07.05.08.05.08.05.08.04.07.05.09.04.08.05.08.04.08.04.09.04.08.05.09.04.09.04.09.04.08.04.1.03.08.04.1.04.09.03.09.04.1.04.09.03.1.03.09.04.1.03.1.03.1.03.1.03.1.03.1.02.1.03.1.03.1.02.1.03.1.02.1.02.11.03.1.02.12.02.1.02.11.02.1.01.12.02.1.02.12.01.1.02.12.01.1.01.12.01.11.01.11.01.12.01.1.01h.12l.12.01h.11l.12.01H54.1l.12-.01h.11l.12-.02h.11l.12-.01.11-.01.11-.01.12-.02h.11l.11-.02.11-.02.11-.01.11-.02.11-.02.11-.02.11-.01.11-.02.1-.03.11-.02.11-.02.1-.02.11-.03.1-.02.1-.03.11-.03.1-.02.1-.03.1-.03.1-.03.1-.03.1-.03.1-.04.1-.03.09-.03.1-.04.09-.03.1-.04.08-.03.1-.04.09-.04.09-.04.09-.04.08-.04.1-.04.08-.04.08-.04.09-.04.08-.05.08-.04.09-.04.08-.05.08-.04.08-.05.07-.04.08-.05.08-.05.07-.05.08-.04.06-.04v-.01l.08-.05.07-.05.07-.05.07-.05.07-.05.06-.05.07-.05.06-.05.07-.05.06-.06.06-.05.06-.05.06-.05.06-.06.05-.05.06-.05.05-.06.06-.05.05-.06.05-.05.05-.05.04-.06.05-.05.05-.06.04-.05.05-.06.04-.06.04-.05.04-.06.04-.05.04-.06.03-.05.04-.06.03-.05.04-.06.03-.06.03-.05.03-.06.03-.05.03-.06.02-.05.03-.06.02-.06.02-.05.03-.06.02-.05.02-.06.01-.05.02-.06.02-.05.01-.06.02-.05.01-.06.01-.05.02-.06V135l.01-.06.01-.05.01-.06v-.05l.01-.06v-.11l.01-.05V134.22l-.01-.05v-.06l-.01-.05-.01-.06-.01-.05v-.06l-.02-.05-.01-.06-.01-.05-.02-.05-.01-.06-.02-.05-.01-.06-.02-.05-.02-.05-.02-.06-.02-.05-.02-.05-.03-.06-.02-.05-.02-.05-.03-.06-.03-.05-.03-.05-.03-.06-.02-.04v-.01l-.04-.05-.03-.06-.03-.05-.04-.06-.03-.05-.04-.05-.03-.06-.04-.05-.04-.05-.04-.06-.05-.05-.04-.05-.04-.06-.05-.05-.05-.05-.04-.05-.05-.06-.05-.05-.05-.05-.06-.05-.04-.05h-.01l-.05-.06-.06-.05-.05-.05-.06-.05-.06-.05-.06-.05-.06-.06-.06-.05-.02-.01-.04-.04-.06-.05-.07-.05-.06-.05-.07-.05-.06-.05-.07-.05-.07-.05-.02-.02-.05-.03-.07-.06-.07-.05-.07-.05-.07-.05-.08-.05-.07-.05-.08-.05-.07-.05-.08-.04-.08-.05-.08-.05-.08-.05-.09-.04-.07-.04-.09-.06-.08-.05-.09-.05-.08-.05-.09-.04-.09-.05-.08-.05-.1-.04-.08-.05-.1-.05-.09-.04-.1-.04-.09-.05-.09-.04-.1-.04-.1-.04-.1-.04-.1-.04-.09-.04-.1-.04-.1-.04-.1-.04-.1-.03-.08-.03h-.03l-.1-.05-.11-.04-.1-.04-.11-.04-.11-.03-.11-.04-.1-.04-.12-.03-.11-.03-.11-.04-.12-.03-.1-.03-.12-.03-.12-.03-.12-.03-.1-.02-.01-.01-.12-.03-.12-.03-.12-.03-.12-.03-.12-.03-.12-.03-.09-.01-.04-.01h-.12zm.27-1.9l.13-.02.15-.02.13-.02.14-.02.14-.02.14-.02H55l.14-.02h.14l.14-.01.14-.01h.27l.14-.01H56.65l.14.01h.13l.14.01h.04l.1.02.13.01.13.02.14.02.13.02.13.02.13.02.14.02.13.03.13.02.13.03.13.02.13.03.13.03.12.03.13.04.13.03.13.03.12.04.13.04.12.03.13.04.12.04.12.05h.02l.1.04.12.05.12.05.12.05.12.05.11.06.12.05.11.05.12.06.11.06.11.06.12.05.1.07.12.06.08.04.02.02.11.07.1.06.11.07.1.07.1.07.1.07.1.08.08.05.03.02.1.08.1.07.09.08.09.08.1.08.08.08.1.09.08.08h.01l.08.08.09.1.08.08.08.09.09.09.08.09.08.09.07.1.08.08.08.1.07.1.07.1.07.09.07.1.07.1.07.1.06.1.07.1.06.1.06.1.06.11.01.03.04.08.06.1.05.11.05.11.05.11.05.11.05.11.04.11.04.12.04.11.04.12.04.11.03.12.04.11.03.12.03.12.02.12.03.12.02.12.02.12.02.12.01.12.02.12v.12l.02.13v.24l.01.12v.38l-.01.12-.01.12-.02.12-.01.13-.02.12-.01.12-.02.12-.03.12-.02.12-.03.11-.03.12-.03.12-.03.11-.04.12-.03.11-.04.12-.04.11-.05.11-.04.11-.05.11-.04.11-.05.11-.06.1-.05.12-.05.1-.06.1-.06.11-.06.1-.06.1-.06.1-.07.1-.06.1-.07.1-.07.1-.07.1-.07.1-.08.09-.07.09-.08.09-.07.1-.08.08-.08.09-.08.09-.09.09-.08.08-.08.09-.09.08-.09.08-.09.09-.09.08-.09.08-.09.08-.1.07-.09.08-.1.08-.09.07-.1.08-.1.07-.1.07-.1.07-.1.07-.1.07-.1.07-.1.07-.11.06-.02.01-.09.06-.1.06-.11.06-.11.07-.11.06-.11.06-.12.05-.1.06-.12.06-.12.05-.11.06-.12.05-.12.05-.11.06-.12.05-.12.05-.12.04-.12.05-.12.05-.13.04-.12.05-.12.04-.13.04-.12.04-.13.04-.13.04-.12.04-.13.04-.13.03-.13.04-.13.03-.13.03-.13.03-.14.03-.13.03-.13.03-.13.03-.14.02-.13.03-.14.02-.13.02-.14.02-.14.02-.14.02-.13.02-.14.01-.14.02-.14.01-.14.02h-.14l-.14.02h-.14l-.15.01-.14.01h-.14l-.14.01H53.59l-.15-.01h-.14l-.14-.02H53l-.14-.02-.14-.01-.14-.01-.14-.02-.14-.01-.14-.02-.14-.02-.14-.02-.14-.02-.13-.02-.14-.02-.13-.03-.14-.02-.13-.03-.14-.02-.13-.03-.13-.03-.14-.03-.13-.03-.13-.03-.13-.04-.13-.03-.13-.04-.13-.04-.12-.03-.13-.04-.13-.04-.12-.04-.12-.05-.13-.04-.12-.04-.12-.05-.12-.04-.12-.05-.12-.05-.12-.05-.12-.05-.12-.05-.11-.05-.12-.05-.11-.06-.12-.05-.11-.06-.11-.05-.11-.06-.11-.06-.11-.06-.11-.06-.1-.06-.11-.06-.1-.07-.11-.06-.1-.07-.1-.06-.11-.07-.1-.07-.1-.06-.1-.07-.1-.07-.1-.08-.09-.07-.09-.07-.1-.07-.09-.08-.09-.08-.09-.07-.08-.08-.09-.08-.09-.08-.08-.08-.08-.08-.09-.08-.08-.08-.08-.08-.08-.09-.07-.08-.08-.1-.07-.08-.08-.08-.07-.1-.07-.08-.07-.1-.07-.08-.06-.1-.07-.09-.06-.09-.07-.1-.06-.09-.06-.1-.05-.09-.06-.1-.05-.1-.06-.1-.05-.1-.05-.1-.05-.1-.04-.1-.05-.1-.04-.1-.04-.1-.04-.1-.04-.11-.04-.1-.03-.11-.03-.1-.04-.12-.02-.1-.03-.11-.03-.11-.02-.11-.02-.11-.02-.11-.02-.11-.01-.11-.02-.11v-.11l-.02-.12v-.22l-.01-.11V134.16l.01-.11.01-.11.01-.11.02-.12.01-.1.02-.12.02-.1.02-.12.03-.1.02-.11.03-.1.03-.12.03-.1.03-.1.03-.11.04-.1.04-.1.04-.11.04-.1.04-.1.05-.1.04-.1.05-.1.05-.1.05-.1.06-.1.05-.09.06-.1.05-.09.06-.1.06-.08.07-.1.06-.08.06-.1.07-.08.07-.1.07-.08.07-.08.07-.09.07-.08.07-.09.08-.08.08-.08.07-.08.08-.08.08-.08.08-.08.09-.08.08-.07.08-.08.09-.07.09-.07.08-.08.1-.07.08-.07.1-.07.09-.07.1-.07.09-.06.1-.07.09-.07.1-.06.1-.06.1-.07.1-.06.1-.06.1-.06.1-.06.1-.06.1-.05.11-.06.11-.06.1-.05.12-.05.1-.06.11-.05.12-.05.1-.05.05-.02.07-.03.11-.04.12-.05.11-.04.12-.05.11-.04.12-.05.12-.04.12-.04.12-.04.12-.04.12-.03.12-.04.12-.03.12-.04.13-.03.12-.03.13-.04.12-.03.13-.03.12-.02.13-.03.13-.03.13-.02.13-.02.13-.03.13-.02.13-.02.13-.02.13-.02.13-.01.13-.02.14-.02.13-.01.13-.01.14-.01.13-.01.14-.01.14-.01h.13l.14-.01h.14l.13-.01H53.93l.09-.02z"/><path d="M74.4 133.3c8.97-11.84 15.43-27.48 18.2-44.07 2.62-15.7 1.79-31.28-2.37-44.2l-73.67.84A107.07 107.07 0 004.82 80c-3.36 20.14-1 39.86 6.47 54.03l63.1-.72z" fill="#c2c2c2"/><path d="M75.16 134.38l-.17.1-.18.08-.2.04-.2.02-1.31.02-33.9.6-27.89.47-.26-.02-.26-.06-.24-.1-.23-.13-.2-.17-.18-.2-.14-.22-.09-.17-.09-.17-.09-.17-.09-.17-.09-.17-.09-.18-.09-.17-.08-.18-.09-.17-.09-.18-.08-.17-.09-.18-.08-.18-.09-.17-.08-.18-.09-.18-.08-.18-.08-.18-.08-.18-.09-.18-.08-.18-.08-.18-.08-.18-.08-.18-.08-.19-.08-.18-.07-.18-.08-.19-.08-.18-.08-.18-.07-.19-.08-.19-.07-.18-.08-.19-.07-.19-.08-.18-.07-.19-.07-.19-.07-.19-.08-.19-.07-.19-.07-.19-.07-.19-.07-.19-.07-.19-.07-.2-.06-.18-.07-.2-.07-.19-.07-.2-.06-.19-.07-.19-.06-.2-.07-.19-.06-.2-.07-.2-.06-.19-.06-.2-.07-.2-.06-.19-.06-.2-.06-.2-.06-.2-.06-.2-.06-.2-.06-.2-.06-.2-.06-.2-.05-.2-.06-.2-.06-.2-.05-.2-.06-.2-.05-.2-.11-.41-.1-.4-.11-.42-.1-.41-.1-.41-.1-.42-.1-.41-.1-.42-.09-.42-.09-.42-.09-.42-.08-.42-.09-.42-.08-.43-.08-.42-.08-.43-.08-.43-.07-.43-.07-.43-.07-.43-.07-.43-.07-.44-.06-.43-.06-.44-.06-.44-.06-.44-.06-.44-.05-.44-.06-.44-.05-.44-.04-.45-.05-.44-.04-.45-.05-.45-.04-.45-.03-.45-.04-.45-.03-.45-.04-.45-.03-.45-.02-.46-.03-.45-.02-.46-.02-.45-.02-.46-.02-.46-.02-.46-.01-.46-.01-.46-.01-.46v-.46l-.01-.47v-2.79l.02-.47v-.46l.02-.47.02-.47.01-.47.02-.47.03-.48.02-.47.03-.47.02-.47.03-.48.04-.47.03-.47.04-.48.03-.47.05-.48.04-.48.04-.47.05-.48.05-.48.05-.47.05-.48.06-.48.02-.2.04-.28.05-.48.07-.48.06-.48.07-.48.06-.48.08-.48.07-.48.07-.48.08-.48.05-.29.04-.3.05-.28.05-.3.05-.28.06-.3.05-.28.05-.3.05-.28.06-.3.05-.28.06-.3.05-.28.06-.3.06-.28.06-.29.06-.29.06-.29.06-.28.06-.3.06-.28.07-.29.06-.28.06-.3.07-.28.07-.28.06-.29.07-.29.07-.28.07-.29.07-.28.07-.29.07-.28.07-.29.07-.28.07-.28.08-.29.07-.28.08-.28.07-.29.08-.28.08-.28.08-.28.07-.28.08-.29.08-.28.08-.28.09-.28.08-.28.08-.28.08-.28.09-.28.08-.27.09-.28.09-.28.08-.28.1-.28.08-.27.09-.28.09-.28.09-.27.09-.28.1-.27.08-.28.1-.27.1-.28.09-.27.1-.27.09-.28.1-.27.1-.27.09-.27.1-.27.1-.28.1-.27.1-.27.1-.27.1-.27.1-.26.1-.27.11-.27.1-.27.11-.27.1-.26.11-.27.11-.27.1-.26.12-.27.1-.26.12-.26.1-.27.12-.26.11-.26.11-.27.12-.26.1-.26.12-.26.12-.26.12-.26.11-.26.12-.26.12-.26.11-.26.12-.25.12-.26.12-.26.12-.25.13-.26.12-.25.12-.26.12-.25.13-.26.12-.25.13-.25.12-.25.13-.25.13-.25.12-.25.13-.25.13-.25.13-.25.13-.25.13-.25.13-.24.14-.25.13-.25.13-.24.13-.24.19-.28.21-.24.26-.21.28-.17.3-.13.33-.08.33-.03 3.6-.06 45.94-.74 24.12-.36.4.02.39.1.37.14.35.21.3.26.26.3.21.35.16.37.1.3.1.32.1.32.1.31.1.32.09.32.09.32.1.32.08.32.1.32.08.33.1.32.08.33.08.32.09.33.08.33.08.32.08.33.08.33.07.33.08.33.08.34.07.33.07.33.07.34.07.33.07.34.07.34.06.33.07.34.06.34.06.34.07.34.05.34.06.34.06.35.06.34.05.34.03.17.02.18.05.34.05.35.05.35.05.34.05.35.04.35.05.35.04.35.04.35.04.35.04.35.04.36.03.35.04.35.03.36.03.35.04.36.03.35.02.36.03.36.03.35.02.36.03.36.02.36.02.36.02.36.02.36.01.36.02.36.01.36.02.36.01.37.01.36.01.36v.37l.02.36v1.1l.01.36V72.86l-.01.37v.37l-.02.37v.37l-.02.37v.37l-.02.36-.01.38-.02.37-.02.37-.01.37-.02.37-.02.37-.03.37-.02.37-.02.38-.03.37-.03.37-.02.38-.03.37-.03.37-.04.38-.03.37-.03.37-.04.38-.04.37-.04.38-.04.37-.04.38-.04.37-.04.38v.05l-.05.32-.05.38-.05.38-.05.37-.05.38-.05.37-.06.38-.05.37-.06.38-.06.38-.06.37-.06.38-.06.38-.03.19-.03.18-.07.4-.07.4-.08.4-.07.39-.08.4-.07.39-.08.4-.08.39-.08.4-.09.39-.08.39-.08.37v.02l-.1.4-.09.38-.09.4-.09.39-.1.38-.09.4-.1.38-.1.39-.1.39-.1.38-.1.39-.1.38-.1.39-.11.38-.11.39-.1.38-.12.38-.11.38-.11.39-.12.38-.11.38-.12.38-.12.37-.11.38-.01.02-.12.36-.12.37-.13.38-.13.37-.13.38-.13.37-.13.37-.13.37-.13.37-.14.37-.14.37-.13.37-.14.36-.14.37-.14.36-.15.37-.14.36-.14.37-.15.36-.15.36-.14.36-.15.36-.15.36-.15.35-.16.36-.15.36-.16.35-.15.36-.16.35-.16.35-.16.35-.16.35-.16.35-.16.35-.17.35-.16.34-.17.35-.16.34-.17.35-.17.34-.17.34-.17.34-.18.34-.1.19-.07.15-.18.33-.18.34-.18.33-.18.33-.18.33-.19.33-.18.33-.19.33-.19.32-.18.33-.2.32-.18.32-.2.33-.19.32-.19.32-.2.31-.19.32-.2.32-.2.31-.19.31-.2.32-.2.3-.2.32-.2.3-.2.31-.2.3-.21.31-.2.3-.21.3-.21.3-.21.3-.21.3-.08.11-.13.19-.22.3-.21.28-.22.3-.21.28-.22.3-.22.28-.22.28-.22.29-.22.28-.22.28-.22.28-.23.28-.22.27-.23.28-.05.06-.17.2-.13.16-.16.13zm-9.82-86.63l-43.85.29V48l-3.63.04-.02.06-.13.23-.13.24-.12.23-.13.24-.13.23-.12.24-.12.24-.13.24-.12.24-.12.24-.12.24-.13.24-.12.24-.12.24-.12.25-.11.24-.12.24-.12.25-.12.24-.11.25-.12.24-.12.25-.11.25-.11.24-.12.25-.11.25-.11.25-.12.25-.1.25-.12.25-.1.25-.12.25-.1.25-.11.26-.11.25-.1.25-.11.26-.11.25-.1.25-.1.26-.11.26-.1.25-.1.26-.11.25-.1.26-.1.26-.1.26-.1.26-.1.26-.1.25-.1.26-.1.26-.09.27-.1.26-.1.26-.08.26-.1.26-.1.26-.08.27-.1.26-.09.27-.09.26-.09.26-.09.27-.09.26-.08.27-.1.27-.08.26-.08.27-.09.27-.08.26-.09.27-.08.27-.08.27-.09.27-.08.27-.08.27-.08.27-.08.27-.08.27-.07.27-.08.27-.08.27-.07.27-.08.27-.07.28-.08.27-.07.27-.07.27-.08.28-.07.27-.07.27-.07.28-.07.27-.07.28-.06.27-.07.28-.07.27-.06.28-.07.28-.06.27-.07.28-.06.27-.06.28-.06.28-.06.28-.06.27-.06.28-.06.28-.06.28-.06.28-.05.27-.06.28-.06.28-.05.28-.05.28-.06.28-.05.28-.05.28-.05.28-.05.28-.05.28-.05.28-.08.46-.08.47-.07.46-.07.46-.08.47-.06.46-.07.46-.07.46-.06.46-.03.28-.03.18-.06.46-.05.47-.06.46-.05.46-.05.45-.05.46-.05.46-.04.46-.04.46-.04.46-.04.45-.04.46-.03.46-.03.45-.03.46-.03.45-.03.46-.02.45-.02.45-.02.46-.02.45-.02.45-.01.45-.01.45-.01.45-.01.45v.45l-.01.44v2.23l.01.44.01.45.02.44.01.44.02.44.01.44.02.43.03.44.02.44.03.43.02.44.03.43.03.43.04.43.03.43.04.43.04.43.04.43.04.43.05.42.05.43.05.42.05.42.05.42.06.42.05.42.06.42.06.41.07.42.06.41.07.42.07.4.07.42.07.4.07.41.08.4.08.41.08.4.08.4.08.4.09.4.09.4.09.4.09.4.09.4.1.38.1.4.1.39.04.19.05.2.05.19.05.19.06.19.05.2.05.18.06.2.05.19.05.19.06.19.05.19.06.19.06.19.05.18.06.2.06.18.06.19.06.18.05.2.06.18.06.18.06.19.07.18.06.19.06.18.06.19.06.18.07.18.06.18.07.19.06.18.06.18.07.18.07.18.06.18.07.18.07.18.07.17.06.18.07.18.07.18.07.17.07.18.07.18.07.17.07.18.08.17.07.17.07.18.08.17.07.17.07.17.08.18.07.17.08.17.07.17.08.17.08.17.08.16.07.17.08.17.08.17.08.16.08.17.08.16.08.17.08.16.04.08 27.72-.16L73.1 132h.6l.03-.06.2-.28.19-.29.19-.29.18-.29.2-.29.18-.29.18-.3.19-.29.18-.3.19-.29.18-.3.18-.3.18-.3.1-.19.08-.1.18-.3.17-.31.18-.3.18-.31.17-.3.18-.31.17-.31.17-.31.18-.31.17-.31.17-.31.16-.32.17-.31.17-.32.16-.31.17-.32.16-.32.16-.32.16-.32.16-.32.16-.33.16-.32.16-.33.15-.32.16-.33.15-.33.15-.33.15-.33.15-.33.15-.33.15-.33.15-.34.06-.15.09-.18.14-.33.15-.34.15-.33.14-.34.15-.34.14-.34.14-.34.14-.34.14-.34.14-.34.14-.34.14-.34.13-.35.13-.34.14-.35.13-.35.13-.34.13-.35.13-.35.13-.35.12-.35.13-.35.12-.36.12-.35.12-.35.12-.36.12-.35.12-.36.12-.35.11-.36.12-.36.11-.36.11-.36.11-.36.11-.36.11-.36.1-.36.12-.36.1-.37.1-.36.1-.36.1-.37.1-.34v-.02l.1-.37.11-.36.1-.37.1-.37.1-.36.1-.37.1-.37.09-.37.09-.37.09-.37.09-.37.09-.37.09-.37.08-.37.09-.37.08-.38.09-.37.08-.37.08-.38.08-.37.08-.38.07-.37.08-.38.07-.37v-.03l.08-.35.07-.38.07-.37.08-.38.07-.38.07-.38.06-.38.07-.37.06-.38.07-.38.06-.38.06-.38.03-.18.03-.18.06-.36.05-.36.06-.36.05-.36.05-.36.05-.36.05-.36.05-.35.05-.36.04-.36.05-.36.04-.36.04-.31v-.05l.05-.35.04-.36.04-.36.04-.36.04-.35.03-.36.04-.36.03-.35.03-.36.04-.35.03-.36.03-.36.02-.35.03-.36.03-.35.02-.36.02-.35.02-.35.02-.36.02-.35.02-.35.02-.36.01-.35.02-.35.01-.35.01-.36.01-.35.01-.35.01-.35v-.35l.01-.35v-.35l.01-.13v-2.65l-.01-.34v-.35l-.02-.34v-.35l-.02-.34v-.34l-.02-.35-.01-.34-.02-.34-.02-.34-.01-.34-.02-.34-.02-.34-.03-.34-.02-.34-.02-.34-.03-.33-.02-.34-.03-.34-.03-.33-.03-.34-.03-.33-.03-.34-.04-.33-.03-.33-.04-.33-.04-.34-.03-.33-.04-.33-.04-.33-.05-.32-.04-.33-.04-.33-.05-.33-.05-.32-.02-.17-.02-.16-.05-.32-.05-.32-.05-.33-.06-.32-.05-.32-.05-.32-.06-.32-.06-.32-.06-.32-.05-.32-.07-.31-.06-.32-.06-.32-.06-.31-.07-.31-.07-.32-.06-.3-.07-.32-.07-.31-.07-.31-.08-.3-.07-.32-.07-.3L89 50l-.08-.31-.08-.3-.07-.31-.09-.3-.08-.3-.08-.3-.08-.3-.09-.3v-.01l-23.01.18z"/><path d="M32 45.32s.38 7.73-5.95 17.66C10.27 87.72 5.63 77.05 5.63 77.05a87.52 87.52 0 005.42 57.24c19.92 2.38 41.87 2.12 63.32-.64 11.94-17.35 16.7-35.38 18.53-54.3-12.31-3.8-21.36-11.34-23.67-33.62-2.31-.18-2.13-.23-5.57-.76l1.09 18.04c-9.38-.5-18.44-.2-27.3.43 0 0-.3-16.98 1.27-18.34 1.57-1.37-6.71.22-6.71.22z" fill="#008fd7"/><clipPath id="a"><path d="M32 45.32s.38 7.73-5.95 17.66C10.27 87.72 5.63 77.05 5.63 77.05a87.52 87.52 0 005.42 57.24c19.92 2.38 41.87 2.12 63.32-.64 11.94-17.35 16.7-35.38 18.53-54.3-12.31-3.8-21.36-11.34-23.67-33.62-2.31-.18-2.13-.23-5.57-.76l1.09 18.04c-9.38-.5-18.44-.2-27.3.43 0 0-.3-16.98 1.27-18.34 1.57-1.37-6.71.22-6.71.22z"/></clipPath><g clip-path="url(#a)"><path d="M31.33 63.91a267.3 267.3 0 0140.39-.5c.51 13.46-.55 25.86-3.23 37.18a231.72 231.72 0 01-42.64 1.15c.62-13.48 2.35-26.11 5.48-37.83z" fill="#008fd7"/><clipPath id="b"><path d="M31.33 63.91a267.3 267.3 0 0140.39-.5c.51 13.46-.55 25.86-3.23 37.18a231.72 231.72 0 01-42.64 1.15c.62-13.48 2.35-26.11 5.48-37.83z"/></clipPath><g clip-path="url(#b)" fill="#fff" fill-rule="nonzero" stroke="#fff" stroke-width="1.88"><path d="M40.13 77.47l5.28-.21c.7-.03 1.33.02 1.9.16.57.13 1.05.33 1.45.6.4.26.69.59.88.98.2.38.27.81.23 1.29-.03.36-.1.68-.2.97-.1.28-.24.55-.45.8a4 4 0 01-.8.71 9.7 9.7 0 01-1.22.7v.04c.46.06.87.17 1.23.33s.66.37.9.64c.25.26.43.57.54.93a3.39 3.39 0 01-.34 2.6 4 4 0 01-1.02 1.16c-.42.33-.93.6-1.5.81-.59.2-1.23.32-1.93.35l-6.12.24 1.17-13.1zm1.68 5.81l2.8-.11c.45-.02.85-.1 1.2-.23.35-.14.66-.33.92-.56.25-.23.46-.5.6-.8.16-.32.25-.65.28-1 .03-.4 0-.74-.13-1.04-.11-.31-.32-.57-.6-.78a2.92 2.92 0 00-1.12-.47 6.8 6.8 0 00-1.69-.11l-1.82.07-.44 5.03zm-.56 6.25l2.38-.1c.64-.02 1.2-.1 1.69-.24a4 4 0 001.21-.56 2.52 2.52 0 001.07-1.85c.03-.42 0-.8-.1-1.15a1.9 1.9 0 00-.56-.9 2.78 2.78 0 00-1.12-.57 5.76 5.76 0 00-1.77-.16l-2.31.09-.49 5.44zM61.99 76.61l-.08.85-6.4.25-.41 4.69 4.63-.18-.08.85-4.63.18-.6 6.72-2.2.08 1.16-13.1L62 76.6z"/></g><path d="M31.33 63.91a267.3 267.3 0 0140.39-.5c.51 13.46-.55 25.86-3.23 37.18a231.72 231.72 0 01-42.64 1.15c.62-13.48 2.35-26.11 5.48-37.83z" fill="none" stroke="#000" stroke-width="1.88" stroke-linecap="round" stroke-miterlimit="1.5"/><path d="M36.6 67.75c.77-.1 1.49.45 1.6 1.25.11.8-.43 1.53-1.2 1.64-.77.1-1.5-.45-1.6-1.25-.12-.8.42-1.53 1.2-1.64zM66.7 66.53c.77-.1 1.49.46 1.6 1.26.11.8-.42 1.53-1.2 1.63-.77.11-1.5-.45-1.6-1.25-.12-.8.42-1.53 1.2-1.64z" fill="#ffc829" stroke="#000" stroke-width="1.88" stroke-linecap="round" stroke-miterlimit="1.5"/></g><path d="M32 45.32s.38 7.73-5.95 17.66C10.27 87.72 5.63 77.05 5.63 77.05a87.52 87.52 0 005.42 57.24c19.92 2.38 41.87 2.12 63.32-.64 11.94-17.35 16.7-35.38 18.53-54.3-12.31-3.8-21.36-11.34-23.67-33.62-2.31-.18-2.13-.23-5.57-.76l1.09 18.04c-9.38-.5-18.44-.2-27.3.43 0 0-.3-16.98 1.27-18.34 1.57-1.37-6.71.22-6.71.22z" fill="none" stroke="#000" stroke-width="1.88" stroke-linecap="round" stroke-miterlimit="1.5"/><path d="M90.42 44.7c.23-1.18.39-2.36.48-3.55C92.27 22.7 76.87 5.86 56.52 3.6 36.17 1.33 18.53 14.48 17.16 32.95c-.32 4.2.25 8.48 1.66 12.58l71.6-.84z" fill="#c2c2c2"/><clipPath id="c"><path d="M90.42 44.7c.23-1.18.39-2.36.48-3.55C92.27 22.7 76.87 5.86 56.52 3.6 36.17 1.33 18.53 14.48 17.16 32.95c-.32 4.2.25 8.48 1.66 12.58l71.6-.84z"/></clipPath><g clip-path="url(#c)"><path d="M40.9 31.38c-.56.42-.87.87-.92 1.33-.27 2.46 6.75 4.7 15.67 4.98 8.91.3 16.37-1.46 16.64-3.92.06-.56-.26-1.13-.96-1.68l-30.42-.71z" fill="#191919"/><clipPath id="d"><path d="M40.9 31.38c-.56.42-.87.87-.92 1.33-.27 2.46 6.75 4.7 15.67 4.98 8.91.3 16.37-1.46 16.64-3.92.06-.56-.26-1.13-.96-1.68l-30.42-.71z"/></clipPath><g clip-path="url(#d)"><path d="M45.9 33c.02 1.53 4.41 2.88 9.93 3.06 5.64.19 10.36-.93 10.53-2.48v-.1L45.9 33z" fill="#fff"/></g><path d="M50 24.58c-.15-4.04-2.86-7.42-6.26-7.8-3.64-.4-6.75 2.76-6.94 7.06a9.2 9.2 0 000 .72l13.2.02z" fill="#191919"/><clipPath id="e"><path d="M50 24.58c-.15-4.04-2.86-7.42-6.26-7.8-3.64-.4-6.75 2.76-6.94 7.06a9.2 9.2 0 000 .72l13.2.02z"/></clipPath><g clip-path="url(#e)"><path d="M42.75 23.15c.23-1.97.1-3.5-.28-3.55-.41-.04-.98 1.65-1.27 3.78l-.05.4 1.6-.63z" fill="#fff"/></g><path d="M71.54 25.25c-.13-3.82-2.7-7.02-5.91-7.38-3.44-.38-6.38 2.6-6.56 6.67a9.2 9.2 0 000 .69l12.47.01z" fill="#191919"/><clipPath id="f"><path d="M71.54 25.25c-.13-3.82-2.7-7.02-5.91-7.38-3.44-.38-6.38 2.6-6.56 6.67a9.2 9.2 0 000 .69l12.47.01z"/></clipPath><g clip-path="url(#f)"><path d="M64.49 23.88c.22-1.98.04-3.52-.42-3.57-.49-.05-1.12 1.64-1.4 3.77l-.06.4 1.88-.6z" fill="#fff"/></g></g><path d="M52.54.85h.25l.25.01h.25l.25.01.24.01.25.01.25.01.25.02h.26l.25.02.25.02.25.02.25.02.25.02.26.02.25.03.25.02.25.03.26.03.25.03.25.03.25.03.25.04.25.03.25.04.25.04.25.04.25.04.24.04.25.05.25.04.24.05.25.05.24.05.25.05.24.05.24.05.25.06.24.05.24.06.24.06.24.06.24.06.24.06.24.07.24.06.24.07.23.07.24.07.23.07.24.07.23.07.24.07.23.08.23.08.24.07.23.08.23.08.23.08.22.08.24.1.22.08.23.08.23.1.22.08.23.09.22.1.23.08.22.1.22.1.23.09.22.1.22.1.22.1.22.1.21.1.22.1.22.1.21.11.22.1.21.11.22.11.21.11.21.11.21.11.22.12.2.11.21.12.21.11.21.12.2.12.21.12.2.12.21.12.2.12.21.13.2.12.2.13.2.12.2.13.2.13.06.04.14.1.2.12.2.14.19.13.19.13.2.14.19.13.19.14.19.14.19.14.19.14.18.14.2.14.18.15.18.14.19.15.18.14.18.15.18.15.18.15.18.15.18.15.18.15.18.15.17.15.18.16.17.15.17.16.18.16.17.15.17.16.17.16.16.16.11.1.06.06.17.17.16.16.16.17.17.16.16.17.16.17.16.16.15.17.16.17.16.17.15.18.15.17.16.17.13.15.02.03.15.17.15.18.14.17.15.18.14.18.15.18.14.18.14.18.14.18.14.19.14.18.13.18.14.19.13.18.14.2.13.18.13.19.12.19.13.19.13.19.12.2.12.18.13.2.12.19.12.2.12.19.11.2.12.19.11.2.12.2.11.19.11.2.11.2.11.2.1.2.11.2.1.2.11.2.1.2.1.2.1.2.04.09.06.12.1.21.09.2.09.21.09.21.09.21.09.2.08.22.09.2.08.22.08.2.08.22.08.21.08.21.07.21.08.22.07.21.08.21.07.22.07.21.07.22.06.21.07.22.06.21.06.22.07.21.06.22.05.22.06.22.06.21.05.22.05.22.05.22.05.22.05.22.05.22.05.22.04.22.04.22.04.22.04.22.04.22.04.23.03.22.04.22.03.22.03.23.03.22.03.22.02.23.02.22.02.23.02.22.01.22.02.23.01.22.01.23.01.23.01.22.01.23v.22l.01.23v1.35l-.02.23v.23l-.01.22-.02.23V39l-.02.22-.02.23-.02.22-.02.23-.02.23-.02.22-.03.23-.02.23-.03.22-.03.23-.02.17-.01.06-.04.24-.04.23-.04.23-.04.23-.04.23-.05.23-.04.23-.05.23-.05.23-.05.23-.06.23-.05.23-.06.22-.06.23-.01.06-.05.16-1.29-.25 1.3.25-.07.22-.1.2-.13.18-.16.16-.18.13-.2.1-.22.06-.22.02-.82.02-21.02.44-49.76 1.03-.3-.01-.3-.07-.3-.11-.1-.07-.16-.09-.24-.2-.2-.23-.17-.26-.13-.28-.07-.2-.07-.2-.07-.2-.06-.21-.07-.2-.07-.21-.06-.2-.06-.21-.06-.21-.06-.2-.06-.21-.06-.2-.05-.22-.06-.2-.05-.21-.05-.2-.05-.22-.05-.2-.05-.21-.04-.2-.05-.22-.04-.2-.04-.22-.04-.2-.04-.21-.04-.21-.04-.21-.03-.21-.04-.21-.03-.21-.03-.21-.03-.21-.03-.21-.03-.21-.03-.21-.02-.21-.02-.21-.03-.21-.02-.22-.02-.2-.01-.22-.02-.2-.02-.22-.01-.21-.01-.21-.01-.21-.01-.21-.01-.22-.01-.2v-.22l-.01-.21v-1.48l.01-.21.01-.21.01-.21.01-.22.01-.2.02-.22.01-.23.02-.23.02-.23.02-.23.02-.23.03-.23.02-.23.03-.22.03-.23.03-.23.03-.22.03-.23.04-.22.04-.23.03-.22.04-.22.04-.23.05-.22.04-.22.05-.22.04-.22.05-.22.05-.22.05-.22.06-.22.05-.22.06-.22.05-.21.06-.22.06-.21.07-.22.06-.21.06-.22.07-.2.07-.22.07-.21.07-.21.07-.21.07-.21.08-.21.07-.21.08-.2.08-.22.08-.2.08-.2.08-.21.09-.2.08-.21.1-.2.08-.2.09-.2.1-.2.08-.2.1-.2.1-.2.09-.2.1-.2.1-.2.1-.2.1-.19.1-.2.1-.19.11-.19.1-.2.11-.18.11-.2.11-.18.12-.2.1-.18.06-.09.06-.1.12-.19.12-.18.11-.19.12-.18.12-.18.12-.19.13-.18.12-.18.13-.18.12-.18.13-.18.13-.17.13-.18.13-.18.13-.17.14-.17.13-.18.14-.17.13-.17.14-.17.14-.17.14-.17.14-.17.15-.17.14-.16.14-.17.15-.16.15-.17.14-.16.15-.16.15-.16.15-.16.16-.16.15-.16.15-.16.16-.15.16-.16.15-.15.16-.16.16-.15.16-.15.16-.15.17-.15.16-.15.16-.15.17-.14.17-.15.16-.14.17-.15.17-.14.17-.14.17-.14.18-.14.17-.14.17-.14.18-.14.17-.13.18-.14.18-.13.18-.13.18-.14.18-.13.18-.13.18-.12.18-.13.19-.13.18-.12.2-.13.18-.12.18-.12.2-.13.18-.12.2-.12.18-.11.2-.12.19-.12.2-.11.19-.12.2-.1.19-.12.2-.11.2-.1.2-.12.2-.1.2-.11.2-.1.2-.1.2-.11.2-.1.2-.1.2-.1.21-.1.2-.1.22-.1.2-.09.21-.1.21-.09.21-.09.21-.09.21-.09.21-.08.22-.09.21-.09.21-.08.22-.08.21-.09.22-.08.22-.08.21-.07.22-.08.22-.08.22-.07.22-.07.22-.08.22-.07.22-.07.23-.07.22-.06.22-.07.23-.06.22-.07.23-.06.22-.06.23-.06.23-.06.23-.06.23-.05.22-.06.14-.03.1-.02.22-.05.24-.05.23-.05.23-.05.23-.05.23-.04.24-.05.23-.04.24-.04.23-.04.24-.04.23-.04.24-.03.24-.04.23-.03.24-.03.24-.04.24-.02.24-.03.24-.03.24-.02.24-.03.24-.02.24-.02.24-.02.25-.02.24-.02.24-.01.24-.02.25-.01.24-.01.25-.01.24-.01.25-.01h.24l.25-.01h.99zm-.94 4.98h-.65l-.22.01-.21.01h-.22l-.22.02h-.21l-.22.02h-.21l-.21.02-.22.02-.21.01-.21.02-.22.02-.2.02-.22.02-.21.02-.21.03-.21.02-.21.03-.21.02-.21.03-.21.03-.21.03-.2.03-.22.03-.2.04-.2.03-.22.04-.2.04-.2.03-.21.04-.2.05-.2.04-.21.04-.09.02-.11.02-.2.05-.2.05-.2.04-.21.05-.2.05-.2.05-.2.05-.2.06-.2.05-.2.05-.19.06-.2.06-.2.06-.19.05-.2.07-.19.06-.2.06-.18.06-.2.07-.19.06-.19.07-.2.07-.18.07-.19.07-.19.07-.19.07-.19.07-.18.08-.19.07-.19.08-.18.08-.19.07-.18.08-.18.08-.19.08-.18.09-.18.08-.18.08-.18.09-.18.08-.18.1-.18.08-.17.09-.18.09-.17.1-.18.08-.17.1-.18.09-.17.1-.17.1-.18.09-.17.1-.17.1-.17.1-.16.1-.17.1-.17.1-.17.1-.16.1-.17.11-.16.1-.16.11-.17.11-.16.11-.16.11-.16.11-.16.11-.16.12-.16.11-.15.11-.16.12-.15.12-.16.11-.15.12-.15.12-.16.12-.15.12-.15.12-.15.12-.15.12-.14.13-.15.12-.15.13-.14.12-.15.13-.14.13-.14.13-.14.13-.15.13-.13.13-.14.13-.14.13-.14.14-.14.13-.13.14-.13.13-.14.14-.13.14-.13.14-.13.14-.13.14-.13.14-.13.14-.13.14-.12.14-.13.15-.12.14-.12.15-.13.14-.12.15-.12.15-.12.15-.11.15-.12.15-.12.15-.11.15-.12.15-.1.15-.12.15-.11.16-.11.15-.1.16-.12.16-.1.15-.1.16-.11.16-.1.16-.11.16-.05.08-.05.08-.1.16-.1.16-.1.16-.1.17-.1.16-.09.16-.1.17-.09.16-.09.17-.09.17-.09.17-.09.16-.08.17-.09.17-.08.17-.09.17-.08.18-.08.17-.08.17-.08.17-.08.18-.08.17-.07.18-.08.17-.07.18-.08.18-.07.18-.07.17-.07.18-.06.18-.07.18-.06.18-.07.18-.06.19-.06.18-.06.18-.06.19-.06.18-.06.19-.05.18-.06.19-.05.18-.05.2-.05.18-.05.19-.05.19-.05.19-.04.19-.05.19-.04.19-.04.19-.04.2-.04.18-.04.2-.03.2-.04.19-.03.2-.04.19-.03.2-.03.19-.02.2-.03.2-.03.2-.02.2-.03.2-.02.2-.02.2-.02.2-.01.2-.02.18-.01.18-.01.18-.02.19v.18l-.01.19-.01.18v.19l-.01.18v.18l-.01.19V36.24l.01.18.01.19v.18l.02.19v.18l.02.19.01.18.01.19.02.18.02.19.01.18.02.19.02.18.02.19.02.18.03.19.02.18.03.19.02.18.03.19.03.18.03.19.03.18.04.19.03.18.04.19.03.18.04.18.04.19.04.18.04.19.04.18.05.18.04.19.05.18.04.18.05.19.05.18.05.18.04.12 48.84-.13 20.1-.04.02-.22.01-.2.01-.22.02-.21v-.22l.01-.21.01-.21V41.47l.01-.22V40l-.01-.2v-.21l-.02-.2v-.2l-.02-.21-.01-.2-.01-.2-.02-.2-.02-.2-.01-.2-.02-.21-.03-.2-.02-.2-.02-.2-.03-.2-.02-.2-.03-.2-.03-.2-.03-.2-.03-.19-.04-.2-.03-.2-.04-.19-.03-.2-.04-.19-.04-.2-.04-.19-.05-.2-.04-.18-.04-.2-.04-.2-.05-.19-.04-.19-.05-.19-.04-.2-.05-.18-.05-.2-.05-.18-.05-.2-.06-.18-.05-.2-.06-.18-.06-.19-.05-.19-.06-.18-.06-.2-.07-.18-.06-.18-.06-.19-.07-.18-.07-.19-.06-.18-.07-.19-.07-.18-.07-.18-.08-.19-.07-.18-.08-.18-.07-.18-.08-.18-.08-.18-.08-.18-.08-.18-.08-.18-.08-.17-.09-.18-.08-.18-.09-.17-.09-.18-.08-.17-.1-.18-.08-.17-.1-.18-.09-.17-.1-.17-.09-.17-.1-.18-.05-.1-.04-.07-.1-.17-.1-.17-.09-.17-.1-.17-.1-.17-.1-.17-.1-.17-.1-.17-.1-.17-.1-.16-.11-.17-.11-.17-.1-.16-.12-.17-.1-.16-.12-.17-.11-.16-.11-.16-.12-.16-.11-.17-.12-.16-.11-.16-.12-.16-.12-.15-.12-.16-.12-.16-.12-.16-.12-.16-.13-.15-.12-.16-.12-.16-.13-.15-.12-.15-.13-.16-.13-.15-.13-.15-.13-.16-.13-.15-.13-.15-.13-.15-.13-.15-.02-.02-.12-.13-.13-.15-.14-.15-.13-.14-.14-.15-.14-.15-.14-.14-.14-.15-.14-.14-.14-.15-.14-.14-.14-.14-.15-.14-.14-.15-.05-.04-.1-.1-.14-.14-.15-.14-.15-.14-.15-.13-.15-.14-.15-.14-.15-.13-.15-.14-.15-.13-.16-.14-.15-.13-.16-.13-.15-.13-.16-.14-.16-.13-.16-.12-.16-.13-.16-.13-.16-.13-.16-.12-.17-.13-.16-.12-.16-.13-.17-.12-.17-.12-.16-.12-.17-.12-.17-.12-.17-.12-.17-.12-.17-.11-.17-.12-.13-.08-.05-.04-.17-.11-.17-.11-.18-.12-.17-.1-.18-.12-.18-.11-.18-.1-.17-.12-.18-.1-.18-.11-.18-.1-.19-.11-.18-.1-.18-.1-.18-.11-.19-.1-.18-.1-.19-.1-.19-.1-.18-.1-.19-.1-.19-.09-.19-.1-.19-.09-.19-.09-.19-.09-.2-.09-.18-.09-.2-.09-.19-.08-.2-.1-.19-.08-.2-.08-.2-.08-.19-.09-.2-.08-.2-.08-.2-.08-.2-.08-.2-.07-.2-.08-.2-.07-.2-.08-.2-.07-.2-.07-.2-.07-.21-.08-.2-.06-.21-.07-.2-.07-.22-.06-.2-.07-.21-.06-.2-.07-.22-.06-.2-.06-.22-.06-.2-.05-.22-.06-.21-.06-.21-.05-.22-.05-.2-.06-.22-.05-.22-.05-.21-.05-.22-.04-.21-.05-.22-.05-.22-.04-.22-.04-.21-.04-.22-.04-.22-.04-.22-.04-.22-.04-.22-.04-.22-.03-.22-.03-.23-.03-.22-.04-.22-.03-.22-.02-.23-.03-.22-.03-.22-.02-.23-.02-.22-.03-.22-.02-.23-.02-.22-.01-.22-.02-.22-.02-.22-.01-.22-.01-.22-.01-.23-.01-.22-.01-.22-.01h-.22l-.21-.01h-.88z"/></g></svg>