<svg clip-rule="evenodd" fill-rule="evenodd" stroke-linejoin="round" stroke-miterlimit="2" viewBox="0 0 90 30" xmlns="http://www.w3.org/2000/svg"><path d="m86.426 6.877c0-2.802-2.274-5.077-5.077-5.077h-72.699c-2.802 0-5.077 2.275-5.077 5.077v10.154c0 2.802 2.275 5.078 5.077 5.078h21.85l-.557 6.091 12.985-6.092 38.421.001c2.803 0 5.077-2.275 5.077-5.077v-10.154z" fill="#722ed1" stroke="#fff" stroke-width=".5"/><g fill="#fff"><g fill-rule="nonzero"><path d="m11.06 7.987v8.256l3.667-.001c2.422 0 3.667-.758 3.667-2.247 0-1.096-.554-1.745-1.678-2.043.704-.284 1.151-.799 1.151-1.597 0-1.556-1.11-2.368-3.235-2.368zm2.53 3.234v-1.258h1.042c.582 0 .839.189.839.622 0 .406-.243.636-.676.636zm0 3.018v-1.407h1.205c.636 0 .988.243.988.676 0 .514-.312.731-1.029.731z"/><path d="m25.743 16.243v-6.592h-2.45v3.844c-.311.365-.69.622-1.096.622-.5 0-.609-.23-.609-.92v-3.546h-2.449v4.196c0 1.786.758 2.518 2.138 2.518.744 0 1.164-.326 2.016-.895v.773z"/><path d="m29.356 7.54h-2.449v8.703h2.449v-.745c.515.554.88.867 1.881.867 1.367 0 2.572-1.03 2.572-3.492 0-2.328-.826-3.329-2.436-3.329-.758 0-1.367.271-2.017.92v-2.923zm0 4.683c.325-.42.663-.637 1.11-.637.595 0 .92.379.92 1.286 0 1.029-.352 1.475-.974 1.475-.501 0-.785-.203-1.056-.595z"/><path d="m37.111 7.54h-2.45v8.703h2.45v-.745c.514.554.879.867 1.881.867 1.367 0 2.571-1.03 2.571-3.492 0-2.328-.825-3.329-2.436-3.329-.758 0-1.367.271-2.016.92v-2.923zm0 4.683c.325-.42.663-.637 1.109-.637.596 0 .921.379.921 1.286 0 1.029-.352 1.475-.975 1.475-.5 0-.785-.203-1.055-.595z"/></g><path d="m42.417 7.54h2.449v8.702h-2.449z"/><path d="m51.469 13.914c-.839.393-1.421.569-2.314.569-.663 0-1.001-.258-1.123-.88h4.073c.041-.379.055-.623.055-.92 0-2.03-1.205-3.154-3.113-3.154-2.125 0-3.383 1.218-3.383 3.465 0 2.192 1.299 3.37 3.383 3.37 1.123 0 2.057-.311 3.113-1.056zm-3.451-1.624c.109-.731.474-1.082 1.029-1.082.623 0 .962.378.989 1.082h-2.017z" fill-rule="nonzero"/><path d="m60.652 13.549c-1.177.433-1.759.555-2.612.555-1.042 0-1.705-.731-1.718-1.963 0-1.367.649-2.03 1.84-2.03.623.001 1.218.123 2.274.394l.744-1.908c-1.015-.502-2.084-.745-3.126-.745-2.68 0-4.29 1.543-4.29 4.29 0 2.707 1.61 4.223 4.155 4.223 1.245 0 2.26-.271 3.545-.934l-.812-1.881z" fill-rule="nonzero"/><path d="m69.693 16.243 2.531-.001-.338-8.255h-2.816l-1.664 3.978c-.094.244-.162.501-.203.65-.04-.149-.108-.406-.216-.65l-1.652-3.978h-2.802l-.338 8.256 2.504-.001.094-3.938v-.339l1.678 4.277h1.462l1.705-4.277v.406l.054 3.871z" fill-rule="nonzero"/><path d="m80.221 8.528c-1.38-.514-2.49-.677-3.64-.677-1.936 0-3.14.907-3.14 2.612 0 1.421.731 2.017 2.301 2.531 1.394.447 1.813.514 1.813.866 0 .257-.162.42-.622.42-.664 0-1.76-.312-2.978-.934l-.839 1.921c1.245.691 2.68 1.097 3.938 1.097 1.963 0 3.235-.975 3.235-2.761 0-1.597-1.029-2.057-2.26-2.49-1.367-.474-1.868-.487-1.868-.88 0-.23.135-.379.528-.379.528 0 1.597.136 2.977.582z" fill-rule="nonzero"/></g></svg>