<?xml version="1.0" encoding="UTF-8" standalone="no"?><!DOCTYPE svg PUBLIC "-//W3C//DTD SVG 1.1//EN" "http://www.w3.org/Graphics/SVG/1.1/DTD/svg11.dtd">
<svg width="100%" height="100%" viewBox="0 0 90 30" version="1.1" 
    xmlns="http://www.w3.org/2000/svg" 
    xmlns:xlink="http://www.w3.org/1999/xlink" xml:space="preserve" 
    xmlns:serif="http://www.serif.com/" style="fill-rule:evenodd;clip-rule:evenodd;stroke-linejoin:round;stroke-miterlimit:2;">
    <g>
        <path d="M86.426,6.877c0,-2.802 -2.274,-5.077 -5.077,-5.077l-72.699,0c-2.802,0 -5.077,2.275 -5.077,5.077l0,10.154c0,2.802 2.275,5.078 5.077,5.078l21.85,0l-0.557,6.091l12.985,-6.092l38.421,0.001c2.803,0 5.077,-2.275 5.077,-5.077l0,-10.154Z" style="fill:#722ed1;stroke:#fff;stroke-width:0.5px;"/>
        <g>
            <path d="M11.06,7.987l0,8.256l3.667,-0.001c2.422,0 3.667,-0.758 3.667,-2.247c0,-1.096 -0.554,-1.745 -1.678,-2.043c0.704,-0.284 1.151,-0.799 1.151,-1.597c0,-1.556 -1.11,-2.368 -3.235,-2.368l-3.572,0Zm2.53,3.234l0,-1.258l1.042,0c0.582,0 0.839,0.189 0.839,0.622c0,0.406 -0.243,0.636 -0.676,0.636l-1.205,0Zm0,3.018l0,-1.407l1.205,0c0.636,0 0.988,0.243 0.988,0.676c0,0.514 -0.312,0.731 -1.029,0.731l-1.164,0Z" style="fill:#fff;fill-rule:nonzero;"/>
            <path d="M25.743,16.243l0,-6.592l-2.45,0l0,3.844c-0.311,0.365 -0.69,0.622 -1.096,0.622c-0.5,0 -0.609,-0.23 -0.609,-0.92l0,-3.546l-2.449,0l0,4.196c0,1.786 0.758,2.518 2.138,2.518c0.744,0 1.164,-0.326 2.016,-0.895l0,0.773l2.45,0Z" style="fill:#fff;fill-rule:nonzero;"/>
            <path d="M29.356,7.54l-2.449,0l0,8.703l2.449,0l0,-0.745c0.515,0.554 0.88,0.867 1.881,0.867c1.367,0 2.572,-1.03 2.572,-3.492c0,-2.328 -0.826,-3.329 -2.436,-3.329c-0.758,0 -1.367,0.271 -2.017,0.92l0,-2.923Zm0,4.683c0.325,-0.42 0.663,-0.637 1.11,-0.637c0.595,0 0.92,0.379 0.92,1.286c0,1.029 -0.352,1.475 -0.974,1.475c-0.501,0 -0.785,-0.203 -1.056,-0.595l0,-1.529Z" style="fill:#fff;fill-rule:nonzero;"/>
            <path d="M37.111,7.54l-2.45,0l0,8.703l2.45,0l0,-0.745c0.514,0.554 0.879,0.867 1.881,0.867c1.367,0 2.571,-1.03 2.571,-3.492c0,-2.328 -0.825,-3.329 -2.436,-3.329c-0.758,0 -1.367,0.271 -2.016,0.92l0,-2.923Zm0,4.683c0.325,-0.42 0.663,-0.637 1.109,-0.637c0.596,0 0.921,0.379 0.921,1.286c0,1.029 -0.352,1.475 -0.975,1.475c-0.5,0 -0.785,-0.203 -1.055,-0.595l0,-1.529Z" style="fill:#fff;fill-rule:nonzero;"/>
            <rect x="42.417" y="7.54" width="2.449" height="8.702" style="fill:#fff;"/>
            <path d="M51.469,13.914c-0.839,0.393 -1.421,0.569 -2.314,0.569c-0.663,0 -1.001,-0.258 -1.123,-0.88l4.073,0c0.041,-0.379 0.055,-0.623 0.055,-0.92c0,-2.03 -1.205,-3.154 -3.113,-3.154c-2.125,0 -3.383,1.218 -3.383,3.465c0,2.192 1.299,3.37 3.383,3.37c1.123,0 2.057,-0.311 3.113,-1.056l-0.691,-1.394Zm-3.451,-1.624c0.109,-0.731 0.474,-1.082 1.029,-1.082c0.623,0 0.962,0.378 0.989,1.082l-2.017,0Z" style="fill:#fff;fill-rule:nonzero;"/>
            <path d="M60.652,13.549c-1.177,0.433 -1.759,0.555 -2.612,0.555c-1.042,0 -1.705,-0.731 -1.718,-1.963c0,-1.367 0.649,-2.03 1.84,-2.03c0.623,0.001 1.218,0.123 2.274,0.394l0.744,-1.908c-1.015,-0.502 -2.084,-0.745 -3.126,-0.745c-2.68,0 -4.29,1.543 -4.29,4.29c0,2.707 1.61,4.223 4.155,4.223c1.245,0 2.26,-0.271 3.545,-0.934l-0.812,-1.881Z" style="fill:#fff;fill-rule:nonzero;"/>
            <path d="M69.693,16.243l2.531,-0.001l-0.338,-8.255l-2.816,0l-1.664,3.978c-0.094,0.244 -0.162,0.501 -0.203,0.65c-0.04,-0.149 -0.108,-0.406 -0.216,-0.65l-1.652,-3.978l-2.802,0l-0.338,8.256l2.504,-0.001l0.094,-3.938l0,-0.339l1.678,4.277l1.462,0l1.705,-4.277l0,0.406l0.054,3.871Z" style="fill:#fff;fill-rule:nonzero;"/>
            <path d="M80.221,8.528c-1.38,-0.514 -2.49,-0.677 -3.64,-0.677c-1.936,0 -3.14,0.907 -3.14,2.612c0,1.421 0.731,2.017 2.301,2.531c1.394,0.447 1.813,0.514 1.813,0.866c0,0.257 -0.162,0.42 -0.622,0.42c-0.664,0 -1.76,-0.312 -2.978,-0.934l-0.839,1.921c1.245,0.691 2.68,1.097 3.938,1.097c1.963,0 3.235,-0.975 3.235,-2.761c0,-1.597 -1.029,-2.057 -2.26,-2.49c-1.367,-0.474 -1.868,-0.487 -1.868,-0.88c0,-0.23 0.135,-0.379 0.528,-0.379c0.528,0 1.597,0.136 2.977,0.582l0.555,-1.908Z" style="fill:#fff;fill-rule:nonzero;"/>
        </g>
    </g>
</svg>
