<?xml version="1.0" encoding="UTF-8" standalone="no"?><!DOCTYPE svg PUBLIC "-//W3C//DTD SVG 1.1//EN" "http://www.w3.org/Graphics/SVG/1.1/DTD/svg11.dtd"><svg width="100%" height="100%" viewBox="0 0 324 325" version="1.1" xmlns="http://www.w3.org/2000/svg" xmlns:xlink="http://www.w3.org/1999/xlink" xml:space="preserve" xmlns:serif="http://www.serif.com/" style="fill-rule:evenodd;clip-rule:evenodd;stroke-linejoin:round;stroke-miterlimit:2;"><rect id="Logo" x="0.414" y="0.045" width="322.68" height="324.082" style="fill:none;"/><g><path d="M157.662,42.782c-10.136,-0.26 -20.225,0.363 -30.123,1.86l-1.655,21.454c-9.414,1.886 -18.507,4.708 -27.112,8.412l-18.026,-15.346c-8.667,4.264 -16.796,9.294 -24.27,15.018l10.733,19.86c-6.846,5.857 -12.895,12.405 -18.034,19.524l-23.826,-5.687c-4.875,7.645 -8.865,15.735 -11.913,24.153l20.246,12.944c-2.445,8.258 -3.828,16.778 -4.125,25.404l-23.241,5.498c0.222,8.977 1.44,17.959 3.636,26.815l24.333,2.56c2.612,8.446 6.264,16.656 10.889,24.477l-16.428,15.209c5.261,7.904 11.36,15.371 18.211,22.292l21.901,-8.509c6.968,6.371 14.678,12.07 22.985,16.991l-5.214,20.844c8.89,4.714 18.237,8.665 27.906,11.797l13.6,-17.299c9.458,2.589 19.159,4.25 28.924,4.952l7.397,20.895c10.136,0.26 20.226,-0.363 30.124,-1.86l1.655,-21.453c9.413,-1.887 18.506,-4.709 27.111,-8.413l18.027,15.347c8.666,-4.264 16.795,-9.295 24.269,-15.019l-10.733,-19.859c6.846,-5.857 12.895,-12.406 18.035,-19.524l23.825,5.686c4.876,-7.645 8.866,-15.735 11.913,-24.153l-20.246,-12.944c2.445,-8.258 3.829,-16.778 4.126,-25.404l23.241,-5.497c-0.223,-8.978 -1.441,-17.96 -3.637,-26.816l-24.333,-2.56c-2.612,-8.446 -6.264,-16.655 -10.889,-24.477l16.428,-15.208c-5.26,-7.905 -11.36,-15.372 -18.21,-22.293l-21.901,8.51c-6.969,-6.371 -14.678,-12.07 -22.986,-16.992l5.214,-20.844c-8.889,-4.714 -18.236,-8.665 -27.906,-11.797l-13.6,17.3c-9.458,-2.589 -19.159,-4.251 -28.923,-4.953l-7.398,-20.895Zm-8.405,50.021c53.965,-3.332 103.066,32.963 109.579,81.001c6.514,48.038 -32.01,89.743 -85.975,93.075c-53.964,3.332 -103.065,-32.963 -109.579,-81.001c-6.513,-48.037 32.011,-89.743 85.975,-93.075Z" style="fill:#ffc800;"/><path d="M236.802,62.256c0.214,0.387 0.29,0.807 0.218,1.254l-4.896,19.688c0.442,0.266 0.882,0.534 1.321,0.804c7.067,4.369 13.725,9.306 19.935,14.837l0.234,0.209c-0,0 20.935,-8.172 20.935,-8.172c1.292,-0.384 1.819,0.387 1.819,0.387c6.715,6.787 12.852,14.212 18.202,22.144l0.383,0.61c-0,0 0.49,1.046 -0.396,2.008l-15.363,14.259c0.194,0.335 0.385,0.671 0.576,1.007c3.812,6.776 6.999,13.964 9.418,21.398c0,-0 23.173,2.458 23.173,2.458c1.603,0.292 1.609,1.4 1.609,1.4c2.174,8.784 3.436,17.773 3.721,26.785l-0.008,0.747c0,0 -0.425,1.245 -1.442,1.58l-21.801,5.188c-0.015,0.331 -0.033,0.662 -0.051,0.993c-0.433,7.396 -1.638,14.707 -3.602,21.848c-0,-0 18.98,12.267 18.98,12.267c1.157,0.883 1.15,1.134 0.812,2.388c-0,-0 -0.881,2.401 -1.515,3.986c-2.818,7.042 -6.301,13.814 -10.326,20.219l-0.42,0.617c-0,0 -1.017,0.806 -2.028,0.648l-22.471,-5.331c-4.758,6.429 -10.225,12.34 -16.213,17.65c-0,-0 9.946,18.339 9.946,18.339c-0,-0 0.772,1.536 -0.591,2.759l0,-0c-7.57,5.793 -15.709,10.835 -24.199,15.075l-0.751,0.337c0,0 -1.237,0.168 -2.076,-0.432l-16.984,-14.422c-7.903,3.307 -16.125,5.861 -24.476,7.673c-0,0 -1.581,19.758 -1.581,19.758c-0.266,1.648 -0.521,1.776 -1.97,2.12l0,0c-9.951,1.503 -20.026,2.143 -30.047,1.94l-0.884,-0.055c-1.451,-0.42 -1.443,-0.808 -1.772,-1.532l-6.897,-19.413c-0.409,-0.033 -0.818,-0.068 -1.226,-0.104c-8.36,-0.758 -16.653,-2.192 -24.801,-4.291l-0.238,-0.062c0,0 -12.586,16.054 -12.586,16.054c-1.4,1.495 -2.701,0.823 -2.701,0.823c-9.593,-3.11 -18.951,-7.024 -27.894,-11.704l-0.772,-0.446c0,-0 -1.132,-1.258 -0.913,-2.603l4.736,-19.023c-7.248,-4.421 -14.109,-9.467 -20.468,-15.094c0,-0 -8.585,3.159 -8.585,3.159l-11.977,4.667c0,0 -1.764,0.288 -2.796,-0.596l-0,-0c-6.758,-6.835 -12.92,-14.301 -18.3,-22.285l-0.452,-0.734c-0.611,-1.654 -0.473,-1.874 0.602,-3.04l14.852,-13.774c-0.22,-0.385 -0.436,-0.771 -0.651,-1.158c-3.526,-6.382 -6.476,-13.052 -8.791,-19.999l-0.107,-0.325c-0,-0 -22.588,-2.352 -22.588,-2.352c-1.743,-0.318 -1.857,-0.537 -2.356,-2.051l0,-0c-2.187,-8.851 -3.45,-17.893 -3.732,-26.967l0.016,-0.893c-0,-0 0.147,-1.643 2.087,-2.282l21.2,-5.029c0.412,-7.426 1.599,-14.779 3.551,-21.964c0,0 -5.806,-3.705 -5.806,-3.705l-12.699,-8.113c-0,-0 -1.602,-1.549 -1.123,-3.316c-0,0 0.889,-2.415 1.529,-4.008c1.122,-2.794 2.346,-5.548 3.668,-8.254c2.026,-4.147 4.288,-8.176 6.745,-12.076l0.491,-0.711c0,0 1.386,-1.096 2.762,-0.878c6.855,1.633 13.706,3.28 20.558,4.921l1.472,0.353c0.216,-0.287 0.434,-0.573 0.651,-0.858c4.417,-5.738 9.395,-11.062 14.811,-15.883l0.3,-0.264c-0,-0 -9.626,-17.986 -9.626,-17.986c0,-0 -0.918,-1.862 0.722,-3.327c0,-0 0.93,-0.708 1.891,-1.411c6.95,-5.059 14.33,-9.495 22.072,-13.294c0.055,-0.027 1.991,-0.644 1.991,-0.644c0.529,0.068 1.021,0.261 1.461,0.579l16.898,14.568c7.961,-3.252 16.165,-5.698 24.501,-7.404l0.313,-0.063l1.54,-19.943c-0,-0 0.235,-1.25 1.721,-1.593c0,-0 5.186,-0.712 9.435,-1.06c6.642,-0.544 13.314,-0.7 19.977,-0.491c1.527,0.05 1.827,-0.057 2.293,0.97l1.646,4.624l5.469,15.373c9.174,0.715 18.36,2.263 27.324,4.627c0,0 12.967,-16.549 12.967,-16.549l1.667,-0.509c9.545,3.092 18.853,6.981 27.751,11.633l0.639,0.362c0,-0 0.181,0.158 0.357,0.38Zm36.62,181.858l22.392,5.344c0.257,-0.412 0.511,-0.827 0.764,-1.242c3.787,-6.263 7.018,-12.856 9.631,-19.703c0,-0 -18.841,-12.134 -18.841,-12.134c0,-0 -1.354,-0.391 -0.498,-3.373c2.189,-7.739 3.452,-15.74 3.754,-23.772c0,-0 0.06,-1.351 1.492,-1.813c0,-0 21.741,-5.107 21.741,-5.107c-0.281,-7.949 -1.377,-15.861 -3.191,-23.617l-23.023,-2.455c-1.159,-0.222 -1.612,-1.493 -1.913,-2.441c-2.583,-8.023 -6.058,-15.694 -10.316,-22.946c-0,0 -0.648,-1.136 0.326,-2.201c0,-0 15.359,-14.175 15.359,-14.175c-0.218,-0.319 -0.436,-0.638 -0.655,-0.957c-4.649,-6.713 -9.855,-13.027 -15.54,-18.91l-0.174,-0.178l-20.868,8.075c-0,0 -1.434,-0.072 -2.69,-1.206c-6.719,-6.022 -14.012,-11.35 -21.72,-15.947c0,-0 -0.94,-0.563 -0.736,-1.775c-0,0 4.946,-19.638 4.946,-19.638c-8.239,-4.314 -16.771,-7.909 -25.545,-10.833l-12.962,16.44c-1.105,1.182 -4.12,-0.194 -6.854,-0.84c-7.658,-1.811 -15.466,-3.01 -23.347,-3.599c0,-0 -0.824,-0.013 -1.247,-0.955l-5.599,-15.894l-1.44,-4.089c-8.982,-0.044 -18.065,0.59 -27.029,1.927l-0.414,0.063l-1.377,20.084c0,0 -0.564,1.574 -2.873,2.082c-8.668,1.935 -17.137,4.68 -25.318,8.242l-2.45,-0.224l-16.802,-14.303c-7.225,3.716 -14.077,7.997 -20.525,12.835c-0,0 9.705,17.877 9.705,17.877c-0,0 0.563,2.254 -2.468,4.976c-5.809,5.256 -11.107,11.129 -15.685,17.468c0,-0 -1.432,1.301 -2.905,1.079c-6.596,-1.559 -21.313,-5.039 -21.306,-5.067l-0.563,-0.134c-3.834,6.215 -7.088,12.802 -9.727,19.601l-0.082,0.212l12.607,8.065l5.728,3.668c2.309,1.754 1.151,3.126 0.528,5.406c-1.971,7.324 -3.109,14.867 -3.39,22.449c0,-0 -0.082,1.928 -2.129,2.591c0,-0 -21.055,4.963 -21.055,4.963c0.015,0.355 0.032,0.71 0.049,1.065c0.374,7.047 1.363,14.051 2.92,20.905c-0,-0 22.46,2.57 22.46,2.57c0,-0 1.944,0.91 3.03,4.195c2.525,7.539 5.858,14.782 9.871,21.609c-0,0 0.965,1.712 -0.487,3.302c-0,0 -14.784,13.656 -14.784,13.656c4.61,6.695 9.758,12.955 15.358,18.778c0,0 12.109,-4.599 12.109,-4.599l8.26,-3.198c2.155,-0.644 4.588,2.272 6.921,4.234c5.724,4.815 11.872,9.151 18.295,12.979c0,0 1.483,0.886 1.163,2.797c-0,-0 -4.761,18.924 -4.761,18.924c7.768,4.01 15.743,7.375 23.97,10.163c0,0 12.704,-15.869 12.704,-15.869c0,0 0.423,-1.41 3.872,-0.489c8.88,2.342 17.986,3.875 27.147,4.558c-0,0 1.376,0.019 2.083,1.593c-0,-0 6.825,19.362 6.825,19.362c0.694,0.013 1.388,0.02 2.081,0.025c8.096,0.054 16.186,-0.493 24.175,-1.587c0,-0 1.547,-19.596 1.547,-19.596c-0,0 -0.309,-1.622 3.139,-2.337c8.693,-1.829 17.185,-4.47 25.375,-7.968c-0,0 1.086,-0.554 2.343,0.357c0,0 16.893,14.425 16.893,14.425c7.436,-3.742 14.503,-8.072 21.15,-13l-9.822,-18.226c-0.785,-1.806 -0.052,-2.164 1.435,-3.456c6.264,-5.481 11.911,-11.615 16.784,-18.319c0,-0 0.669,-1.039 2.187,-0.807c-0.002,0.011 -0.005,0.023 -0.008,0.035Zm-124.39,-149.893c-27.398,1.91 -54.566,14.89 -70.485,37.202c-19.171,26.869 -18.023,65.513 3.273,93.296c2.753,3.592 5.771,6.978 9.009,10.138c32.763,31.974 86.965,39.537 126.171,16.333c19.663,-11.637 34.729,-31.402 38.712,-53.816c6.681,-37.596 -20.466,-76.163 -53.765,-92.206c-16.374,-7.889 -34.762,-11.467 -52.291,-10.977c0,-0 -0.288,0.008 -0.624,0.03Zm0.62,-2.858c32.081,-2.697 65.914,8.882 88.896,33.946c21.2,23.121 29.966,58.083 18.221,87.78c-12.675,32.047 -46.324,53.425 -82.151,56.048c-47.571,3.483 -98.495,-24.463 -111.202,-72.815c-8.404,-31.98 5.027,-67.8 33.651,-87.54c15.25,-10.516 33.561,-16.272 52.106,-17.377c0.159,-0.014 0.319,-0.028 0.479,-0.042Z" style="fill-rule:nonzero;"/><g><g><path d="M243.86,74.795l-135.238,-3.553c0.039,4.783 -24.367,26.875 -24.332,31.355c0.303,38.437 -0.146,35.832 15.495,61.364c16.573,27.055 11.913,48.079 11.517,88.782l119.776,-9.905c-14.005,-29.204 -34.277,-23.144 -10.989,-74.539c8.227,-10.58 10.019,-25.335 8.381,-45.494l15.39,-48.01Z" style="fill:#ffdca5;"/><path d="M106.147,71.154c0.023,-0.632 0.286,-1.234 0.74,-1.679c0.479,-0.47 1.129,-0.726 1.8,-0.708c-0,-0 17.847,0.394 40.572,1.056c8.554,0.249 17.799,0.544 27.043,0.873c11.741,0.417 23.477,0.874 33.799,1.31c19.402,0.819 33.792,1.543 33.792,1.543c0.392,0.011 0.756,0.205 0.983,0.525c0.227,0.32 0.29,0.728 0.171,1.101l-15.167,47.79c0.911,11.005 0.787,20.417 -0.823,28.436c-1.376,6.853 -3.839,12.703 -7.647,17.68c-8.811,19.617 -11.254,30.623 -10.011,38.493c0.875,5.542 3.625,9.443 7.088,13.76c4.242,5.288 9.53,11.135 14.172,20.746c0.249,0.52 0.227,1.13 -0.06,1.63c-0.287,0.5 -0.801,0.827 -1.376,0.875l-119.751,10.22c-0.58,0.048 -1.153,-0.151 -1.579,-0.547c-0.426,-0.396 -0.666,-0.953 -0.66,-1.535c0.168,-22.805 1.707,-39.406 0.057,-54.358c-1.253,-11.348 -4.379,-21.724 -11.453,-33.211c-9.157,-14.881 -12.886,-20.478 -14.534,-29.75c-1.234,-6.942 -1.26,-15.993 -1.425,-32.788c-0.01,-1.023 0.693,-2.819 2.228,-4.962c3.976,-5.55 13.631,-15.234 18.947,-21.849c1.163,-1.447 2.107,-2.729 2.69,-3.766c0.178,-0.317 0.368,-0.792 0.404,-0.885Zm4.271,2.619l-0.041,0.084c-0.722,1.453 -2.147,3.432 -4.005,5.683c-4.796,5.812 -12.58,13.71 -16.952,19.139c-1.032,1.282 -1.865,2.407 -2.379,3.316c-0.142,0.25 -0.295,0.612 -0.338,0.716c0.097,16.309 0.054,25.117 1.229,31.88c1.527,8.791 5.18,14.04 13.8,28.177c7.413,12.165 10.665,23.135 11.931,35.125c1.542,14.601 0.09,30.744 -0.26,52.606l114.949,-9.201c-4.161,-7.998 -8.763,-13.154 -12.498,-17.864c-3.817,-4.812 -6.756,-9.202 -7.694,-15.357c-1.257,-8.257 1.156,-19.848 10.54,-40.407l0.185,-0.307c3.627,-4.638 5.957,-10.121 7.286,-16.55c1.622,-7.848 1.759,-17.082 0.911,-27.896c-0.014,-0.181 0.007,-0.364 0.062,-0.537l15.005,-46.345c-4.331,-0.015 -16.642,-0.067 -32.148,-0.228c-10.331,-0.106 -22.075,-0.266 -33.821,-0.466c-9.249,-0.157 -18.496,-0.348 -27.052,-0.548c-18.389,-0.431 -33.581,-0.869 -38.71,-1.02Z"/><path d="M218.303,169.442c7.536,-28.118 -46.419,-12.388 -76.043,0.998c-1.51,0.682 -4.008,1.541 -6.614,0.051c-23.667,-22.819 -65.912,-89.339 -51.356,-67.894c14.141,20.834 -7.219,23.732 16.385,58.204c18.014,26.309 12.323,50.126 11.167,90.914l120.681,-5.862c-14.491,-28.571 -39.129,-22.905 -14.22,-76.411Z" style="fill:#d2b48c;fill-opacity:0.43;"/><path d="M134.688,8.56c-27.718,7.088 -59.013,24.832 -59.547,51.025c0,-0 -0.594,38.205 0.412,37.217l61.137,-86.087c-0.505,-0.741 -1.229,-1.452 -2.002,-2.155Z" style="fill:#008fd7;"/><path d="M135.108,8.099c-0.155,-0.141 -0.371,-0.194 -0.574,-0.143c-4.013,0.914 -8.106,2.025 -12.17,3.388c-3.983,1.336 -7.936,2.9 -11.765,4.678c-3.096,1.437 -6.107,3.02 -8.984,4.739c-4.498,2.688 -8.663,5.716 -12.332,9.026c-9.09,8.199 -15.088,18.207 -15.295,29.774c0,0.006 -0.3,24.284 0.087,33.665c0.072,1.736 0.174,2.987 0.296,3.531c0.111,0.496 0.339,0.752 0.465,0.854c0.206,0.166 0.422,0.233 0.634,0.241c0.255,0.01 0.542,-0.051 0.806,-0.313c0.044,-0.043 0.083,-0.09 0.119,-0.139l60.812,-86.317c0.154,-0.217 0.157,-0.506 0.007,-0.725c-0.229,-0.334 -0.499,-0.663 -0.798,-0.986c-0.396,-0.43 -0.844,-0.853 -1.308,-1.273Zm-0.586,1.157c-3.807,1.093 -7.664,2.411 -11.51,3.889c-3.855,1.482 -7.685,3.143 -11.405,4.982c-2.99,1.478 -5.908,3.066 -8.708,4.767c-4.34,2.636 -8.397,5.535 -11.963,8.731c-8.6,7.71 -14.393,17.07 -14.642,27.978c0,-0 -0.453,24.192 -0.13,33.544c0.012,0.348 0.024,0.674 0.038,0.976l59.705,-83.405c-0.13,-0.166 -0.271,-0.331 -0.42,-0.496c-0.296,-0.326 -0.623,-0.647 -0.965,-0.966Z" style="fill:#171717;"/><path d="M263.112,70.391c-42.381,-4.204 -81.549,-8.569 -112.694,-12.559c-5.987,-0.767 -9.937,-40.761 -15.687,-42.656c-6.682,-2.202 -60.46,77.235 -60.613,80.74l-0.633,31.454c29.665,-2.951 8.168,-12.891 19.882,-20.78c1.381,-0.93 2.995,-4.37 4.926,-4.982c0.976,-0.308 12.854,-27.045 16.633,-27.227c2.428,-0.116 14.098,23.933 15.845,25.501c11.514,10.33 41.504,11.14 74.729,-12.346c1.926,-1.361 4.284,-3.808 6.422,-2.923c2.846,1.178 7.006,18.388 12.639,21.669c2.865,1.668 5.909,1.503 8.905,-0.107l29.646,-35.784Z" style="fill:#363636;"/><path d="M260.609,18.658c-15.62,-11.602 -72.232,-20.352 -127.546,-9.888c0.806,23.146 4.457,43.157 11.859,55.014c41.202,0.587 81.383,4.798 121.116,10.597c4.53,-9.99 1.04,-36.681 -5.429,-55.723Z" style="fill:#fff;"/><path d="M261.352,17.658c-3.969,-3.156 -10.623,-6.263 -19.334,-8.873c-5.424,-1.624 -11.648,-3.049 -18.493,-4.205c-3.969,-0.67 -8.148,-1.246 -12.502,-1.69c-23.028,-2.349 -50.881,-1.656 -78.391,3.604c-1.124,0.212 -1.925,1.213 -1.885,2.357c0.488,12.592 1.808,24.263 4.093,34.225c2.004,8.735 4.755,16.172 8.309,21.814c0.376,0.603 1.033,0.973 1.743,0.983c20.422,0.199 40.596,1.294 60.593,3.029c20.27,1.757 40.356,4.171 60.332,6.99c0.673,0.098 1.33,-0.261 1.611,-0.88c2.165,-4.836 2.581,-13.426 1.632,-23.217c-1.056,-10.9 -3.742,-23.317 -7.271,-33.538l-0.437,-0.599Zm-1.794,1.792c-3.774,-2.511 -9.735,-4.715 -17.306,-6.625c-5.522,-1.393 -11.892,-2.582 -18.918,-3.569c-7.828,-1.099 -16.461,-1.932 -25.643,-2.353c-19.193,-0.881 -40.771,-0.03 -62.243,3.788c0.442,11.526 1.616,22.219 3.65,31.427c1.708,7.732 4.012,14.404 7.022,19.6c20.122,0.41 39.998,1.674 59.695,3.566c19.913,1.913 39.643,4.466 59.263,7.411c1.678,-4.64 1.898,-12.159 1.16,-20.641c-0.919,-10.572 -3.38,-22.611 -6.68,-32.604Z" style="fill:#171717;"/><path d="M89.723,103.498c8.434,-2.017 17.742,6.146 20.773,18.219c3.031,12.073 -1.356,23.512 -9.79,25.529c-8.434,2.018 -17.742,-6.146 -20.773,-18.218c-3.031,-12.073 1.356,-23.512 9.79,-25.53Z" style="fill:#fff;"/><path d="M84.978,104.664c9.024,-2.158 18.811,5.891 21.842,17.964c3.031,12.072 -1.835,23.626 -10.858,25.785c-9.024,2.158 -18.81,-5.891 -21.841,-17.964c-3.031,-12.072 1.834,-23.626 10.857,-25.785Z" style="fill:#363636;"/><path d="M206.345,95.298c1.168,1.209 0.024,4.117 -2.553,6.491c-2.578,2.373 -5.619,3.319 -6.787,2.11c-1.169,-1.209 -0.025,-4.118 2.553,-6.491c2.577,-2.374 5.619,-3.319 6.787,-2.11Z" style="fill:#ff8eba;"/><path d="M215.268,95.828c1.499,0.79 1.348,3.902 -0.336,6.945c-1.684,3.043 -4.267,4.873 -5.765,4.083c-1.498,-0.789 -1.347,-3.901 0.336,-6.945c1.684,-3.043 4.267,-4.873 5.765,-4.083Z" style="fill:#ff8eba;"/><path d="M213.791,120.539c-7.517,-4.417 -7.531,-6.07 -25.303,-0.204c-5.523,3.5 -7.267,5.863 -3.1,5.599c3.172,-0.439 6.294,-0.724 9.372,-0.866c7.858,-0.362 15.423,0.207 22.751,1.523c1.428,0.175 2.799,-0.165 2.206,-1.276l-5.926,-4.776Z" style="fill:#ff8eba;"/></g><path d="M82.209,230.707c39.638,49.356 122.57,40.954 147.114,17.295c7.844,-7.562 23.824,-21.096 13.855,-29.611c-43.053,-36.774 -51.425,-27.966 -102.012,12.732c-58.133,-47.792 -12.114,-12.955 -58.957,-0.416Z" style="fill:#008fd7;"/><path d="M141.169,229.678c17.071,-13.825 29.314,-23.93 39.742,-29.8c7.632,-4.296 14.333,-6.349 21.199,-6.034c11.619,0.534 23.805,7.95 42.027,23.424c3.946,3.354 4.435,7.384 2.976,11.598c-2.508,7.237 -11.39,15.122 -16.7,20.267c-13.731,13.291 -45.477,22.06 -78.003,18.703c-6.734,-0.695 -13.505,-1.894 -20.141,-3.712c-6.576,-1.802 -13.025,-4.193 -19.183,-7.235c-6.099,-3.013 -11.918,-6.66 -17.294,-11.001c-5.216,-4.213 -10.001,-9.087 -14.263,-14.635c-0.185,-0.23 -0.241,-0.537 -0.149,-0.817c0.092,-0.281 0.319,-0.495 0.603,-0.572c22.15,-6.005 22.942,-17.045 24.402,-21.508c0.439,-1.342 1.035,-2.179 1.869,-2.508c0.564,-0.223 1.282,-0.246 2.233,0.083c3.376,1.17 11.039,7.693 30.682,23.747Zm-57.406,1.506c4.159,4.795 8.751,8.972 13.638,12.636c5.362,4.021 11.095,7.39 17.071,10.185c6.035,2.823 12.315,5.051 18.706,6.755c6.468,1.724 13.043,2.924 19.593,3.615c31.404,3.312 62.148,-4.724 75.461,-17.504c4.301,-4.125 11.109,-10.043 14.582,-15.943c2.41,-4.092 3.179,-8.175 -0.594,-11.415c-17.467,-15.006 -29.052,-22.415 -40.24,-22.993c-6.415,-0.332 -12.669,1.614 -19.825,5.585c-10.519,5.837 -22.904,15.994 -40.286,29.891l-1.414,-0.007c-19.715,-16.31 -27.279,-22.987 -30.628,-24.171c-0.364,-0.129 -0.633,-0.202 -0.85,-0.118c-0.228,0.089 -0.338,0.335 -0.472,0.633c-0.453,1.002 -0.752,2.557 -1.366,4.418c-1.805,5.465 -6.081,13.528 -23.376,18.433Z"/></g></g></svg>