<?xml version="1.0" encoding="UTF-8" standalone="no"?><!DOCTYPE svg PUBLIC "-//W3C//DTD SVG 1.1//EN" "http://www.w3.org/Graphics/SVG/1.1/DTD/svg11.dtd"><svg width="100%" height="100%" viewBox="0 0 324 325" version="1.1" xmlns="http://www.w3.org/2000/svg" xmlns:xlink="http://www.w3.org/1999/xlink" xml:space="preserve" xmlns:serif="http://www.serif.com/" style="fill-rule:evenodd;clip-rule:evenodd;stroke-linejoin:round;stroke-miterlimit:2;"><rect id="Logo" x="0.477" y="0.318" width="322.68" height="324.082" style="fill:none;"/><g><ellipse cx="162.09" cy="184.165" rx="101.085" ry="96.835" style="fill:#fff;"/><path d="M157.726,43.055c-10.136,-0.26 -20.226,0.363 -30.124,1.86l-1.655,21.454c-9.413,1.887 -18.506,4.708 -27.111,8.413l-18.027,-15.347c-8.666,4.264 -16.795,9.294 -24.269,15.018l10.733,19.86c-6.846,5.857 -12.895,12.405 -18.035,19.524l-23.825,-5.686c-4.876,7.645 -8.866,15.734 -11.913,24.152l20.246,12.944c-2.445,8.258 -3.829,16.779 -4.126,25.404l-23.241,5.498c0.223,8.978 1.441,17.959 3.636,26.815l24.334,2.561c2.612,8.445 6.264,16.655 10.889,24.476l-16.428,15.209c5.26,7.905 11.36,15.371 18.21,22.293l21.901,-8.51c6.969,6.371 14.678,12.07 22.986,16.991l-5.214,20.845c8.889,4.713 18.236,8.665 27.906,11.796l13.6,-17.299c9.458,2.589 19.159,4.25 28.923,4.953l7.398,20.895c10.136,0.259 20.225,-0.364 30.123,-1.86l1.655,-21.454c9.413,-1.887 18.507,-4.708 27.111,-8.413l18.027,15.347c8.667,-4.264 16.796,-9.294 24.27,-15.018l-10.734,-19.86c6.847,-5.857 12.896,-12.405 18.035,-19.524l23.826,5.686c4.875,-7.645 8.865,-15.735 11.913,-24.152l-20.246,-12.945c2.445,-8.257 3.828,-16.778 4.125,-25.403l23.241,-5.498c-0.223,-8.978 -1.44,-17.959 -3.636,-26.815l-24.333,-2.561c-2.612,-8.446 -6.264,-16.655 -10.889,-24.476l16.428,-15.209c-5.261,-7.905 -11.36,-15.372 -18.211,-22.293l-21.901,8.51c-6.968,-6.371 -14.678,-12.07 -22.985,-16.991l5.214,-20.845c-8.89,-4.713 -18.237,-8.665 -27.906,-11.796l-13.6,17.299c-9.458,-2.589 -19.159,-4.25 -28.924,-4.953l-7.397,-20.895Zm-8.405,50.021c53.964,-3.332 103.065,32.964 109.579,81.001c6.513,48.038 -32.011,89.743 -85.975,93.075c-53.965,3.332 -103.066,-32.963 -109.579,-81c-6.514,-48.038 32.01,-89.744 85.975,-93.076Z" style="fill:#ffc800;"/><path d="M236.865,62.529c0.215,0.388 0.291,0.808 0.218,1.254l-4.896,19.689c0.442,0.265 0.882,0.534 1.322,0.804c7.067,4.368 13.724,9.306 19.935,14.836l0.233,0.21c0,-0 20.936,-8.172 20.936,-8.172c1.292,-0.384 1.818,0.386 1.818,0.386c6.715,6.787 12.852,14.212 18.203,22.145l0.382,0.61c0,-0 0.49,1.045 -0.396,2.007l-15.362,14.259c0.193,0.335 0.385,0.671 0.576,1.008c3.811,6.775 6.998,13.963 9.418,21.397c-0,0 23.172,2.458 23.172,2.458c1.604,0.292 1.61,1.401 1.61,1.401c2.174,8.783 3.436,17.772 3.72,26.784l-0.007,0.748c-0,-0 -0.426,1.244 -1.443,1.58l-21.8,5.187c-0.016,0.331 -0.033,0.662 -0.052,0.993c-0.433,7.397 -1.637,14.707 -3.602,21.848c0,0 18.981,12.267 18.981,12.267c1.157,0.883 1.15,1.134 0.811,2.388c-0,-0 -0.881,2.401 -1.515,3.986c-2.817,7.043 -6.301,13.815 -10.325,20.219l-0.421,0.618c0,-0 -1.016,0.805 -2.027,0.647l-22.471,-5.331c-4.758,6.429 -10.226,12.34 -16.214,17.65c0,-0 9.946,18.339 9.946,18.339c-0,-0 0.773,1.536 -0.59,2.759l-0,0c-7.571,5.794 -15.71,10.835 -24.199,15.075l-0.751,0.337c-0,0 -1.238,0.168 -2.077,-0.432l-16.983,-14.421c-7.904,3.307 -16.125,5.861 -24.477,7.673c0,-0 -1.58,19.757 -1.58,19.757c-0.266,1.649 -0.521,1.776 -1.97,2.121l-0,-0c-9.952,1.502 -20.027,2.142 -30.048,1.94l-0.883,-0.056c-1.451,-0.42 -1.443,-0.808 -1.773,-1.532l-6.897,-19.412c-0.409,-0.034 -0.817,-0.069 -1.226,-0.105c-8.359,-0.758 -16.652,-2.192 -24.801,-4.291l-0.237,-0.062c-0,0 -12.586,16.054 -12.586,16.054c-1.4,1.496 -2.702,0.823 -2.702,0.823c-9.593,-3.11 -18.95,-7.024 -27.894,-11.704l-0.771,-0.446c-0,-0 -1.132,-1.258 -0.913,-2.603l4.736,-19.023c-7.249,-4.421 -14.11,-9.467 -20.468,-15.094c-0,-0 -8.586,3.159 -8.586,3.159l-11.976,4.668c-0,-0 -1.765,0.287 -2.797,-0.597l0,0c-6.757,-6.835 -12.92,-14.301 -18.299,-22.285l-0.452,-0.734c-0.611,-1.653 -0.473,-1.874 0.602,-3.04l14.851,-13.774c-0.219,-0.384 -0.435,-0.771 -0.651,-1.158c-3.525,-6.381 -6.476,-13.052 -8.791,-19.999l-0.107,-0.325c0,0 -22.588,-2.351 -22.588,-2.351c-1.743,-0.319 -1.856,-0.538 -2.355,-2.052l-0,-0c-2.187,-8.85 -3.451,-17.893 -3.733,-26.967l0.016,-0.893c0,0 0.147,-1.643 2.087,-2.282l21.201,-5.029c0.411,-7.425 1.599,-14.779 3.551,-21.964c-0,0 -5.807,-3.704 -5.807,-3.704l-12.699,-8.114c0,0 -1.601,-1.549 -1.123,-3.315c0,-0 0.89,-2.415 1.529,-4.009c1.122,-2.794 2.346,-5.548 3.668,-8.253c2.026,-4.147 4.288,-8.177 6.746,-12.077l0.491,-0.71c-0,-0 1.386,-1.096 2.762,-0.879c6.854,1.633 13.705,3.28 20.558,4.921l1.472,0.353c0.216,-0.287 0.433,-0.573 0.651,-0.858c4.416,-5.738 9.394,-11.062 14.811,-15.883l0.299,-0.264c0,-0 -9.625,-17.986 -9.625,-17.986c-0,0 -0.919,-1.862 0.722,-3.327c-0,0 0.93,-0.707 1.89,-1.411c6.951,-5.059 14.33,-9.495 22.073,-13.293c0.055,-0.027 1.99,-0.644 1.99,-0.644c0.53,0.068 1.021,0.26 1.462,0.579l16.897,14.567c7.962,-3.251 16.165,-5.698 24.501,-7.403l0.313,-0.063l1.54,-19.944c0,0 0.236,-1.25 1.722,-1.593c-0,0 5.185,-0.712 9.435,-1.06c6.642,-0.543 13.314,-0.7 19.977,-0.49c1.527,0.049 1.826,-0.058 2.293,0.969l1.646,4.624l5.468,15.373c9.175,0.715 18.361,2.263 27.324,4.628c0,-0 12.967,-16.549 12.967,-16.549l1.667,-0.51c9.546,3.092 18.854,6.981 27.751,11.634l0.64,0.361c-0,0 0.18,0.158 0.356,0.38Zm36.621,181.858l22.391,5.344c0.257,-0.412 0.511,-0.826 0.764,-1.241c3.787,-6.264 7.018,-12.857 9.632,-19.704c-0,-0 -18.841,-12.134 -18.841,-12.134c-0,0 -1.354,-0.391 -0.498,-3.372c2.188,-7.74 3.451,-15.741 3.754,-23.773c-0,0 0.059,-1.35 1.492,-1.813c-0,0 21.74,-5.107 21.74,-5.107c-0.28,-7.948 -1.377,-15.861 -3.19,-23.617l-23.024,-2.454c-1.158,-0.222 -1.611,-1.493 -1.913,-2.442c-2.583,-8.023 -6.058,-15.694 -10.316,-22.945c0,-0 -0.647,-1.137 0.327,-2.202c-0,-0 15.358,-14.174 15.358,-14.174c-0.217,-0.32 -0.436,-0.639 -0.655,-0.957c-4.648,-6.713 -9.854,-13.028 -15.54,-18.91l-0.173,-0.179l-20.869,8.076c0,-0 -1.433,-0.073 -2.69,-1.206c-6.719,-6.022 -14.011,-11.351 -21.72,-15.948c0,0 -0.94,-0.562 -0.736,-1.774c0,-0 4.946,-19.639 4.946,-19.639c-8.239,-4.314 -16.77,-7.909 -25.545,-10.833l-12.962,16.441c-1.104,1.181 -4.12,-0.194 -6.853,-0.841c-7.658,-1.811 -15.467,-3.009 -23.347,-3.599c-0,-0 -0.825,-0.013 -1.247,-0.955l-5.599,-15.894l-1.441,-4.089c-8.981,-0.044 -18.065,0.59 -27.029,1.928l-0.413,0.063l-1.377,20.084c-0,-0 -0.564,1.574 -2.874,2.081c-8.667,1.935 -17.137,4.68 -25.318,8.243l-2.45,-0.225l-16.801,-14.302c-7.225,3.716 -14.077,7.997 -20.526,12.835c0,-0 9.705,17.876 9.705,17.876c0,0 0.563,2.254 -2.468,4.976c-5.809,5.257 -11.106,11.129 -15.684,17.468c-0,0 -1.433,1.301 -2.906,1.08c-6.596,-1.56 -21.313,-5.039 -21.306,-5.068l-0.562,-0.134c-3.834,6.215 -7.088,12.803 -9.728,19.601l-0.081,0.212l12.606,8.065l5.729,3.669c2.308,1.754 1.15,3.126 0.527,5.406c-1.971,7.323 -3.108,14.866 -3.389,22.448c-0,0 -0.083,1.928 -2.129,2.591c-0,-0 -21.056,4.964 -21.056,4.964c0.015,0.355 0.032,0.71 0.05,1.065c0.374,7.047 1.362,14.05 2.919,20.904c0,-0 22.461,2.57 22.461,2.57c-0,-0 1.943,0.91 3.03,4.196c2.525,7.539 5.858,14.781 9.87,21.609c0,-0 0.965,1.711 -0.487,3.302c0,-0 -14.784,13.655 -14.784,13.655c4.61,6.695 9.758,12.955 15.359,18.779c-0,-0 12.108,-4.6 12.108,-4.6l8.26,-3.197c2.156,-0.645 4.589,2.271 6.922,4.234c5.723,4.814 11.871,9.151 18.295,12.979c-0,-0 1.482,0.885 1.162,2.796c0,0 -4.761,18.924 -4.761,18.924c7.768,4.01 15.744,7.376 23.971,10.164c-0,-0 12.704,-15.869 12.704,-15.869c-0,-0 0.422,-1.411 3.872,-0.49c8.88,2.342 17.985,3.875 27.146,4.558c0,0 1.377,0.02 2.083,1.593c0,0 6.826,19.363 6.826,19.363c0.693,0.012 1.387,0.019 2.081,0.024c8.096,0.054 16.185,-0.493 24.175,-1.587c-0,0 1.546,-19.596 1.546,-19.596c0,0 -0.309,-1.622 3.139,-2.336c8.693,-1.83 17.186,-4.471 25.375,-7.969c-0,0 1.086,-0.554 2.344,0.357c-0,0 16.893,14.425 16.893,14.425c7.436,-3.742 14.503,-8.072 21.149,-12.999l-9.822,-18.226c-0.784,-1.807 -0.051,-2.165 1.436,-3.457c6.263,-5.481 11.911,-11.615 16.784,-18.319c-0,0 0.668,-1.039 2.187,-0.807c-0.003,0.012 -0.006,0.023 -0.008,0.035Zm-124.391,-149.892c-27.397,1.909 -54.566,14.889 -70.485,37.201c-19.171,26.87 -18.023,65.513 3.274,93.297c2.752,3.591 5.771,6.977 9.009,10.137c32.762,31.975 86.964,39.537 126.17,16.334c19.664,-11.638 34.73,-31.403 38.713,-53.817c6.68,-37.596 -20.466,-76.162 -53.766,-92.206c-16.374,-7.889 -34.761,-11.467 -52.29,-10.977c-0,0 -0.289,0.008 -0.625,0.031Zm0.62,-2.859c32.082,-2.696 65.915,8.882 88.896,33.946c21.201,23.122 29.967,58.084 18.221,87.78c-12.675,32.047 -46.324,53.425 -82.151,56.048c-47.571,3.483 -98.494,-24.463 -111.201,-72.815c-8.405,-31.98 5.027,-67.799 33.651,-87.539c15.25,-10.517 33.56,-16.273 52.105,-17.377c0.16,-0.014 0.319,-0.029 0.479,-0.043Z" style="fill-rule:nonzero;"/><g><g><path d="M243.924,75.068l-135.239,-3.553c0.039,4.783 -24.367,26.875 -24.332,31.355c0.304,38.438 -0.145,35.832 15.495,61.364c16.573,27.055 11.914,48.079 11.517,88.782l119.777,-9.905c-14.006,-29.204 -34.278,-23.144 -10.99,-74.538c8.228,-10.581 10.019,-25.335 8.381,-45.495l15.391,-48.01Z" style="fill:#ffdca5;"/><path d="M106.211,71.427c0.022,-0.632 0.286,-1.233 0.739,-1.679c0.479,-0.47 1.129,-0.726 1.8,-0.708c0,-0 17.848,0.394 40.572,1.056c8.555,0.25 17.799,0.545 27.044,0.873c11.74,0.417 23.476,0.874 33.798,1.31c19.403,0.819 33.792,1.544 33.792,1.544c0.393,0.01 0.757,0.204 0.984,0.524c0.227,0.32 0.29,0.728 0.17,1.101l-15.167,47.79c0.911,11.005 0.788,20.418 -0.823,28.436c-1.376,6.853 -3.839,12.703 -7.647,17.681c-8.811,19.616 -11.253,30.623 -10.01,38.492c0.875,5.542 3.625,9.443 7.088,13.76c4.241,5.288 9.53,11.136 14.171,20.747c0.25,0.52 0.227,1.129 -0.06,1.629c-0.286,0.501 -0.801,0.828 -1.376,0.875l-119.75,10.22c-0.58,0.048 -1.153,-0.15 -1.58,-0.547c-0.426,-0.396 -0.665,-0.953 -0.66,-1.535c0.168,-22.804 1.708,-39.406 0.057,-54.358c-1.252,-11.348 -4.379,-21.723 -11.453,-33.211c-9.157,-14.881 -12.885,-20.478 -14.534,-29.749c-1.234,-6.942 -1.26,-15.994 -1.425,-32.789c-0.01,-1.023 0.694,-2.818 2.229,-4.961c3.976,-5.551 13.63,-15.234 18.946,-21.849c1.164,-1.448 2.107,-2.729 2.69,-3.766c0.179,-0.318 0.368,-0.793 0.405,-0.886Zm4.27,2.619l-0.041,0.085c-0.721,1.453 -2.147,3.431 -4.004,5.682c-4.796,5.812 -12.581,13.71 -16.952,19.139c-1.033,1.282 -1.865,2.408 -2.38,3.316c-0.141,0.25 -0.295,0.613 -0.338,0.716c0.097,16.31 0.055,25.117 1.229,31.88c1.527,8.792 5.181,14.041 13.801,28.177c7.413,12.165 10.664,23.136 11.93,35.125c1.542,14.601 0.09,30.745 -0.26,52.606l114.95,-9.201c-4.161,-7.998 -8.763,-13.153 -12.499,-17.863c-3.817,-4.812 -6.756,-9.203 -7.693,-15.358c-1.258,-8.257 1.155,-19.848 10.539,-40.407l0.185,-0.306c3.628,-4.639 5.957,-10.122 7.286,-16.551c1.622,-7.848 1.759,-17.082 0.912,-27.895c-0.015,-0.182 0.006,-0.365 0.062,-0.538l15.005,-46.345c-4.332,-0.014 -16.643,-0.067 -32.149,-0.227c-10.33,-0.107 -22.074,-0.266 -33.821,-0.467c-9.248,-0.157 -18.496,-0.348 -27.051,-0.548c-18.389,-0.43 -33.581,-0.868 -38.711,-1.02Z"/><path d="M218.366,169.715c7.536,-28.117 -46.419,-12.388 -76.043,0.998c-1.51,0.682 -4.007,1.541 -6.614,0.051c-23.666,-22.818 -65.912,-89.339 -51.356,-67.894c14.141,20.834 -7.219,23.733 16.385,58.204c18.015,26.309 12.324,50.126 11.167,90.915l120.682,-5.863c-14.492,-28.57 -39.129,-22.904 -14.221,-76.411Z" style="fill:#d2b48c;fill-opacity:0.43;"/><path d="M134.752,8.833c-27.718,7.088 -59.014,24.833 -59.547,51.025c-0,0 -0.594,38.205 0.412,37.218l61.136,-86.088c-0.504,-0.741 -1.229,-1.451 -2.001,-2.155Z" style="fill:#008fd7;"/><path d="M135.171,8.373c-0.155,-0.141 -0.371,-0.195 -0.574,-0.143c-4.012,0.913 -8.106,2.024 -12.169,3.387c-3.984,1.337 -7.937,2.901 -11.766,4.678c-3.096,1.437 -6.107,3.02 -8.984,4.74c-4.497,2.687 -8.662,5.716 -12.331,9.025c-9.091,8.199 -15.088,18.207 -15.295,29.775c-0,0.005 -0.301,24.283 0.086,33.665c0.072,1.735 0.175,2.986 0.296,3.53c0.111,0.496 0.339,0.752 0.466,0.854c0.205,0.166 0.422,0.233 0.633,0.242c0.255,0.01 0.542,-0.052 0.807,-0.314c0.043,-0.043 0.083,-0.089 0.118,-0.139l60.813,-86.317c0.153,-0.216 0.156,-0.505 0.007,-0.725c-0.229,-0.334 -0.499,-0.662 -0.798,-0.986c-0.397,-0.43 -0.844,-0.853 -1.309,-1.272Zm-0.586,1.156c-3.807,1.093 -7.664,2.411 -11.509,3.889c-3.855,1.482 -7.685,3.144 -11.405,4.982c-2.991,1.478 -5.909,3.067 -8.708,4.767c-4.341,2.636 -8.398,5.535 -11.963,8.731c-8.6,7.71 -14.393,17.07 -14.642,27.978c-0,-0 -0.454,24.193 -0.131,33.545c0.012,0.347 0.025,0.673 0.039,0.975l59.704,-83.404c-0.13,-0.167 -0.271,-0.332 -0.42,-0.496c-0.296,-0.326 -0.623,-0.648 -0.965,-0.967Z" style="fill:#171717;"/><path d="M263.175,70.664c-42.381,-4.204 -81.548,-8.569 -112.694,-12.558c-5.987,-0.767 -9.936,-40.762 -15.687,-42.657c-6.681,-2.202 -60.459,77.235 -60.612,80.741l-0.634,31.453c29.666,-2.951 8.169,-12.89 19.882,-20.779c1.381,-0.93 2.995,-4.371 4.927,-4.982c0.975,-0.309 12.853,-27.046 16.632,-27.227c2.429,-0.117 14.098,23.933 15.845,25.5c11.515,10.331 41.505,11.14 74.73,-12.346c1.925,-1.361 4.283,-3.808 6.421,-2.923c2.846,1.178 7.006,18.388 12.64,21.669c2.864,1.669 5.909,1.503 8.904,-0.107l29.646,-35.784Z" style="fill:#363636;"/><path d="M260.673,18.931c-15.62,-11.602 -72.232,-20.352 -127.547,-9.888c0.806,23.146 4.457,43.158 11.859,55.014c41.203,0.587 81.383,4.798 121.116,10.598c4.53,-9.99 1.04,-36.682 -5.428,-55.724Z" style="fill:url(#_Radial1);"/><path d="M261.415,17.931c-3.968,-3.156 -10.622,-6.263 -19.334,-8.872c-5.424,-1.625 -11.647,-3.05 -18.492,-4.206c-3.969,-0.67 -8.148,-1.245 -12.503,-1.69c-23.028,-2.349 -50.88,-1.655 -78.391,3.604c-1.124,0.213 -1.924,1.214 -1.884,2.357c0.488,12.592 1.807,24.263 4.093,34.226c2.003,8.734 4.755,16.172 8.309,21.813c0.376,0.603 1.032,0.973 1.742,0.983c20.423,0.199 40.597,1.295 60.593,3.029c20.27,1.758 40.357,4.171 60.333,6.99c0.673,0.098 1.329,-0.261 1.61,-0.88c2.165,-4.836 2.581,-13.426 1.633,-23.217c-1.056,-10.9 -3.742,-23.316 -7.272,-33.537l-0.437,-0.6Zm-1.793,1.792c-3.774,-2.511 -9.735,-4.714 -17.307,-6.624c-5.522,-1.393 -11.892,-2.583 -18.918,-3.569c-7.828,-1.099 -16.46,-1.933 -25.642,-2.354c-19.193,-0.88 -40.771,-0.03 -62.244,3.788c0.442,11.527 1.616,22.219 3.65,31.427c1.709,7.732 4.012,14.404 7.023,19.6c20.122,0.41 39.997,1.675 59.695,3.567c19.913,1.912 39.642,4.466 59.262,7.41c1.678,-4.64 1.898,-12.158 1.161,-20.641c-0.919,-10.572 -3.38,-22.611 -6.68,-32.604Z" style="fill:#171717;"/><path d="M89.786,103.771c8.434,-2.017 17.742,6.147 20.773,18.219c3.031,12.073 -1.355,23.512 -9.789,25.53c-8.434,2.017 -17.742,-6.146 -20.773,-18.219c-3.031,-12.073 1.355,-23.512 9.789,-25.53Z" style="fill:#fff;"/><path d="M85.042,104.938c9.023,-2.159 18.81,5.89 21.841,17.963c3.031,12.073 -1.834,23.626 -10.858,25.785c-9.023,2.158 -18.81,-5.891 -21.841,-17.963c-3.031,-12.073 1.834,-23.627 10.858,-25.785Z" style="fill:#363636;"/><path d="M206.409,95.571c1.168,1.209 0.024,4.118 -2.554,6.491c-2.577,2.373 -5.619,3.319 -6.787,2.11c-1.168,-1.209 -0.024,-4.117 2.553,-6.491c2.578,-2.373 5.619,-3.319 6.788,-2.11Z" style="fill:#ff8eba;"/><path d="M215.332,96.101c1.498,0.79 1.347,3.902 -0.336,6.945c-1.684,3.044 -4.267,4.873 -5.766,4.084c-1.498,-0.79 -1.347,-3.902 0.337,-6.945c1.683,-3.044 4.267,-4.873 5.765,-4.084Z" style="fill:#ff8eba;"/><path d="M213.855,120.812c-7.518,-4.417 -7.531,-6.07 -25.303,-0.203c-5.523,3.499 -7.267,5.862 -3.1,5.598c3.171,-0.439 6.294,-0.724 9.372,-0.865c7.858,-0.363 15.422,0.207 22.751,1.522c1.427,0.175 2.799,-0.165 2.205,-1.276l-5.925,-4.776Z" style="fill:#ff8eba;"/></g><path d="M84.353,230c39.639,49.357 120.489,41.934 145.033,18.275c7.845,-7.561 24.252,-21.236 13.856,-29.611c-39.393,-31.732 -31.542,-23.772 -84.4,13.797c-67.98,-60.207 -35.13,-23.417 -74.489,-2.461Z" style="fill:#008fd7;"/><path d="M158.917,230.949c15.296,-10.98 25.423,-19.394 33.106,-24.994c6.841,-4.986 11.847,-7.762 16.738,-8.292c3.893,-0.421 7.743,0.541 12.381,3.039c5.762,3.103 12.834,8.645 23.028,16.809c4.14,3.317 4.67,7.357 3.19,11.597c-2.524,7.23 -11.578,15.165 -16.88,20.302c-13.78,13.338 -45.052,21.818 -77.12,18.099c-6.637,-0.77 -13.312,-2.045 -19.856,-3.942c-6.457,-1.87 -12.792,-4.328 -18.851,-7.427c-5.967,-3.052 -11.671,-6.721 -16.957,-11.069c-5.106,-4.199 -9.808,-9.038 -14.023,-14.525c-0.162,-0.202 -0.226,-0.467 -0.174,-0.721c0.052,-0.255 0.215,-0.473 0.445,-0.595c15.119,-8.113 19.36,-18.588 22.938,-24.801c1.717,-2.982 3.369,-5.017 5.704,-5.669c1.933,-0.54 4.402,-0.16 7.887,1.629c6.864,3.525 18.122,12.689 38.444,30.56Zm-73.202,-0.694c4.161,4.836 8.741,9.059 13.602,12.771c5.278,4.031 10.902,7.428 16.756,10.262c5.94,2.877 12.112,5.163 18.388,6.931c6.375,1.797 12.853,3.071 19.303,3.833c30.93,3.652 61.181,-4.098 74.528,-16.912c4.295,-4.118 11.219,-10.067 14.743,-15.973c2.443,-4.095 3.206,-8.169 -0.722,-11.35c-9.965,-8.074 -16.865,-13.573 -22.506,-16.652c-4.031,-2.201 -7.364,-3.133 -10.759,-2.784c-4.531,0.464 -9.122,3.124 -15.483,7.703c-7.846,5.648 -18.238,14.186 -34.037,25.343l-1.471,-0.079c-18.825,-16.775 -29.858,-26.025 -36.843,-30.18c-5.106,-3.037 -7.769,-3.303 -9.857,-1.479c-1.516,1.324 -2.708,3.573 -4.227,6.317c-3.484,6.296 -8.473,15.123 -21.415,22.249Z"/></g></g><defs><radialGradient id="_Radial1" cx="0" cy="0" r="1" gradientUnits="userSpaceOnUse" gradientTransform="matrix(135.026,0,0,70.2917,133.126,39.5088)"><stop offset="0" style="stop-color:#d6d6d6;stop-opacity:1"/><stop offset="1" style="stop-color:#fff;stop-opacity:1"/></radialGradient></defs></svg>