<?xml version="1.0" standalone="no"?>
<!DOCTYPE svg PUBLIC "-//W3C//DTD SVG 20010904//EN"
 "http://www.w3.org/TR/2001/REC-SVG-20010904/DTD/svg10.dtd">
<svg version="1.0" xmlns="http://www.w3.org/2000/svg"
 width="864.000000pt" height="864.000000pt" viewBox="0 0 864.000000 864.000000"
 preserveAspectRatio="xMidYMid meet">
<metadata>
Created by potrace 1.11, written by Peter Selinger 2001-2013
</metadata>
<g transform="translate(0.000000,864.000000) scale(0.100000,-0.100000)"
fill="#000000" stroke="none">
<path d="M2420 8453 c-85 -9 -258 -46 -341 -73 -406 -133 -759 -440 -948 -825
-92 -188 -140 -355 -161 -560 -8 -78 -10 -624 -8 -1860 4 -1578 6 -1758 21
-1830 72 -349 220 -630 457 -865 141 -141 275 -235 450 -319 239 -113 463
-160 768 -161 130 0 132 0 132 -22 0 -13 -9 -115 -20 -228 -112 -1169 -160
-1683 -157 -1687 3 -2 667 433 1476 967 l1473 970 201 0 c303 0 454 20 657 86
236 77 442 206 630 394 236 236 379 499 452 830 l23 105 0 1825 c0 1739 -1
1830 -19 1925 -129 691 -691 1228 -1383 1320 -91 12 -391 14 -1888 13 -979 -1
-1796 -3 -1815 -5z m2295 -1213 c374 -26 641 -94 865 -220 362 -205 533 -515
533 -970 0 -116 -5 -161 -22 -224 -62 -231 -214 -413 -442 -530 -49 -25 -90
-48 -92 -51 -1 -3 38 -19 88 -36 434 -146 669 -407 726 -807 17 -126 7 -377
-21 -477 -76 -276 -250 -478 -535 -620 -232 -115 -490 -178 -880 -217 -97 -10
-402 -13 -1195 -13 l-1065 0 -3 2075 c-1 1141 0 2081 3 2088 6 15 1821 17
2040 2z"/>
<path d="M3955 6237 c-3 -7 -4 -149 -3 -317 l3 -305 345 0 c399 0 423 4 510
82 64 58 92 128 92 236 0 182 -77 268 -271 303 -105 18 -669 20 -676 1z"/>
<path d="M3958 4794 c-5 -4 -8 -164 -8 -356 l0 -349 403 3 c381 4 405 5 467
26 177 58 249 168 238 358 -6 94 -27 142 -91 201 -57 52 -89 69 -185 95 -70
19 -112 21 -447 25 -203 3 -373 2 -377 -3z"/>
</g>
</svg>
