<svg clip-rule="evenodd" fill-rule="evenodd" stroke-linejoin="round" stroke-miterlimit="1.41421" viewBox="0 0 84 27" 
    xmlns="http://www.w3.org/2000/svg" 
    xmlns:xlink="http://www.w3.org/1999/xlink">
    <clipPath id="a">
        <path clip-rule="evenodd" d="m0 .28h82.853v26.399h-82.853z"/>
    </clipPath>
    <path d="m0 .28h82.853v26.399h-82.853z" fill="none"/>
    <g clip-path="url(#a)">
        <path d="m82.853 5.357c0-2.802-2.274-5.077-5.077-5.077h-72.699c-2.802 0-5.077 2.275-5.077 5.077v10.154c0 2.802 2.275 5.077 5.077 5.077h21.85l-.557 6.091 12.985-6.091h38.421c2.803 0 5.077-2.275 5.077-5.077z" fill="#722ed1"/>
        <g fill="#fff" fill-rule="nonzero">
            <path d="m7.487 6.467v8.255h3.667c2.422 0 3.667-.758 3.667-2.247 0-1.096-.554-1.745-1.678-2.043.704-.284 1.151-.799 1.151-1.597 0-1.556-1.11-2.368-3.235-2.368zm2.53 3.234v-1.258h1.042c.582 0 .839.189.839.622 0 .406-.243.636-.676.636zm0 3.018v-1.407h1.205c.636 0 .988.243.988.676 0 .514-.312.731-1.029.731z"/>
            <path d="m22.17 14.722v-6.591h-2.45v3.844c-.311.365-.69.622-1.096.622-.5 0-.609-.23-.609-.92v-3.546h-2.449v4.196c0 1.786.758 2.517 2.138 2.517.744 0 1.164-.325 2.016-.894v.772z"/>
            <path d="m25.783 6.02h-2.449v8.702h2.449v-.744c.515.554.88.866 1.881.866 1.367 0 2.572-1.029 2.572-3.492 0-2.328-.826-3.329-2.436-3.329-.758 0-1.367.271-2.017.92zm0 4.683c.325-.42.663-.637 1.11-.637.595 0 .92.379.92 1.286 0 1.029-.352 1.475-.974 1.475-.501 0-.785-.203-1.056-.595z"/>
            <path d="m33.538 6.02h-2.45v8.702h2.45v-.744c.514.554.879.866 1.881.866 1.367 0 2.571-1.029 2.571-3.492 0-2.328-.825-3.329-2.436-3.329-.758 0-1.367.271-2.016.92zm0 4.683c.325-.42.663-.637 1.109-.637.596 0 .921.379.921 1.286 0 1.029-.352 1.475-.975 1.475-.5 0-.785-.203-1.055-.595z"/>
            <path d="m38.843 6.02h2.449v8.702h-2.449z"/>
            <path d="m47.896 12.394c-.839.393-1.421.569-2.314.569-.663 0-1.001-.258-1.123-.88h4.073c.041-.379.055-.623.055-.92 0-2.03-1.205-3.154-3.113-3.154-2.125 0-3.383 1.218-3.383 3.465 0 2.192 1.299 3.37 3.383 3.37 1.123 0 2.057-.312 3.113-1.056zm-3.451-1.624c.109-.731.474-1.082 1.029-1.082.622 0 .961.378.988 1.082z"/>
            <path d="m57.079 12.029c-1.177.433-1.759.555-2.612.555-1.042 0-1.705-.731-1.718-1.963 0-1.367.649-2.03 1.84-2.03.623 0 1.218.122 2.274.393l.744-1.908c-1.015-.501-2.084-.745-3.126-.745-2.68 0-4.29 1.543-4.29 4.29 0 2.707 1.61 4.223 4.155 4.223 1.245 0 2.26-.271 3.545-.934z"/>
            <path d="m66.119 14.722h2.531l-.338-8.255h-2.815l-1.665 3.978c-.094.244-.162.501-.203.65-.04-.149-.108-.406-.216-.65l-1.651-3.978h-2.802l-.338 8.255h2.504l.094-3.938v-.339l1.678 4.277h1.462l1.705-4.277v.406z"/>
            <path d="m76.648 7.008c-1.38-.514-2.49-.677-3.64-.677-1.936 0-3.14.907-3.14 2.612 0 1.421.731 2.017 2.301 2.531 1.394.447 1.813.514 1.813.866 0 .257-.162.42-.622.42-.664 0-1.76-.312-2.978-.934l-.839 1.921c1.245.691 2.68 1.097 3.938 1.097 1.963 0 3.235-.975 3.235-2.761 0-1.597-1.029-2.057-2.26-2.49-1.367-.474-1.868-.487-1.868-.88 0-.23.135-.379.528-.379.528 0 1.597.136 2.977.582z"/>
        </g>
    </g>
</svg>