<?xml version="1.0" encoding="UTF-8" standalone="no"?><!DOCTYPE svg PUBLIC "-//W3C//DTD SVG 1.1//EN" "http://www.w3.org/Graphics/SVG/1.1/DTD/svg11.dtd"><svg width="100%" height="100%" viewBox="0 0 84 27" version="1.1" xmlns="http://www.w3.org/2000/svg" xmlns:xlink="http://www.w3.org/1999/xlink" xml:space="preserve" xmlns:serif="http://www.serif.com/" style="fill-rule:evenodd;clip-rule:evenodd;stroke-linejoin:round;stroke-miterlimit:1.41421;"><rect id="Artboard1" x="0" y="0.28" width="82.853" height="26.399" style="fill:none;"/><clipPath id="_clip1"><rect x="0" y="0.28" width="82.853" height="26.399"/></clipPath><g clip-path="url(#_clip1)"><g><path d="M82.853,5.357c0,-2.802 -2.274,-5.077 -5.077,-5.077l-72.699,0c-2.802,0 -5.077,2.275 -5.077,5.077l0,10.154c0,2.802 2.275,5.077 5.077,5.077l21.85,0l-0.557,6.091l12.985,-6.091l38.421,0c2.803,0 5.077,-2.275 5.077,-5.077l0,-10.154Z" style="fill:#00a0dd;"/><text x="6.823px" y="14.722px" style="font-family:'Gentona-ExtraBold', 'Gentona';font-weight:800;font-size:13.533px;fill:#fff;">B<tspan x="15.011px " y="14.722px ">u</tspan>bbl<tspan x="41.752px " y="14.722px ">e</tspan></text><text x="49.798px" y="14.722px" style="font-family:'Gentona-ExtraBold', 'Gentona';font-weight:800;font-size:13.533px;fill:#fff;">CM<tspan x="69.245px " y="14.722px ">S</tspan></text></g></g></svg>