<?xml version="1.0" standalone="no"?>
<!DOCTYPE svg PUBLIC "-//W3C//DTD SVG 20010904//EN"
 "http://www.w3.org/TR/2001/REC-SVG-20010904/DTD/svg10.dtd">
<svg version="1.0" xmlns="http://www.w3.org/2000/svg"
 width="650.000000pt" height="650.000000pt" viewBox="0 0 650.000000 650.000000"
 preserveAspectRatio="xMidYMid meet">
<metadata>
Created by potrace 1.11, written by Peter Selinger 2001-2013
</metadata>
<g transform="translate(0.000000,650.000000) scale(0.100000,-0.100000)"
fill="#000000" stroke="none">
<path d="M3405 6462 c-2 -2 -36 -6 -77 -8 -73 -3 -133 -9 -238 -21 -30 -4 -70
-7 -87 -7 -18 -1 -33 -3 -33 -6 0 -3 -10 -5 -22 -6 -23 0 -91 -9 -138 -18 -14
-3 -41 -7 -60 -10 -84 -13 -96 -18 -119 -44 -15 -16 -44 -32 -75 -40 -28 -8
-55 -15 -61 -16 -51 -14 -241 -90 -247 -100 -4 -6 -8 -7 -8 -3 0 12 -202 -97
-280 -151 -111 -77 -204 -159 -285 -252 -74 -86 -156 -254 -172 -353 -3 -18
-7 -39 -8 -47 -2 -8 -4 -29 -4 -46 -1 -28 -9 -36 -83 -79 -113 -65 -271 -171
-303 -205 l-26 -27 67 -129 c38 -71 84 -158 103 -194 l34 -66 -94 -95 c-97
-98 -117 -120 -182 -201 -24 -28 -44 -45 -55 -43 -9 2 -17 4 -17 5 0 1 -11 4
-25 6 -14 3 -43 9 -65 15 -22 6 -47 12 -55 14 -8 2 -64 15 -125 30 -151 36
-145 35 -169 25 -31 -12 -192 -296 -221 -390 -4 -14 -11 -29 -15 -35 -4 -5
-14 -32 -23 -59 -16 -45 -15 -51 0 -77 10 -16 21 -29 25 -29 5 0 59 -33 121
-73 61 -40 137 -88 167 -107 30 -19 58 -38 61 -43 4 -5 1 -32 -7 -61 -7 -28
-15 -64 -19 -81 -16 -89 -27 -167 -32 -225 -2 -36 -7 -67 -10 -70 -4 -5 -71
-22 -133 -36 -14 -3 -43 -10 -65 -16 -22 -5 -48 -12 -58 -14 -10 -2 -27 -6
-37 -9 -10 -3 -29 -8 -42 -10 -62 -11 -110 -29 -118 -45 -11 -21 -2 -217 15
-310 2 -14 7 -41 9 -60 3 -19 8 -46 11 -60 36 -180 41 -189 104 -191 20 -1 45
-3 56 -4 11 -2 47 -6 80 -9 33 -4 74 -8 90 -10 17 -3 66 -7 110 -11 44 -4 83
-9 87 -11 3 -2 12 -21 18 -42 6 -20 15 -46 20 -57 5 -11 23 -54 41 -95 17 -41
49 -109 70 -151 22 -41 39 -79 39 -84 0 -4 -9 -16 -21 -26 -42 -37 -234 -215
-261 -244 -39 -39 -33 -55 54 -174 125 -169 270 -333 315 -356 26 -14 42 -10
128 26 17 6 35 13 40 15 23 6 80 29 85 34 3 3 28 13 55 22 28 9 71 24 96 34
l47 18 38 -33 c22 -18 93 -72 159 -122 66 -49 126 -94 133 -100 6 -5 12 -7 12
-4 0 3 15 -6 34 -20 l33 -25 -24 -98 c-13 -53 -25 -106 -28 -117 -2 -11 -13
-53 -24 -93 -27 -104 -21 -117 82 -166 133 -63 302 -134 409 -171 113 -40 118
-39 169 27 19 24 37 44 41 46 5 2 8 10 8 17 0 7 3 15 8 17 4 2 34 37 67 78 32
41 65 81 71 87 7 7 14 18 16 25 4 10 21 9 79 -5 41 -10 88 -20 104 -22 17 -3
50 -9 75 -14 58 -12 110 -19 185 -26 85 -8 91 -11 108 -58 9 -23 40 -112 71
-197 30 -85 62 -160 70 -165 27 -20 372 -8 566 19 14 2 39 4 56 5 48 2 51 12
70 276 7 108 14 159 22 166 4 4 24 10 45 13 21 4 60 13 85 21 26 8 83 25 127
39 44 13 110 36 148 50 37 14 71 26 75 26 6 0 58 -43 222 -184 95 -81 130
-106 150 -106 59 0 524 293 526 331 1 12 -54 123 -120 241 -13 24 -37 68 -53
99 l-30 57 76 74 c90 88 142 143 200 218 47 59 49 60 99 47 19 -4 64 -15 100
-23 88 -19 91 -20 186 -43 136 -34 135 -34 178 29 60 88 229 440 212 440 -3 0
0 8 5 19 8 15 5 23 -19 45 -17 14 -32 26 -35 26 -7 0 -245 154 -262 169 -7 6
-16 11 -20 11 -4 0 -19 9 -32 19 l-24 18 19 79 c10 43 17 82 16 85 0 3 3 23 8
45 11 46 24 153 24 206 1 43 -8 39 221 93 204 48 235 56 241 67 10 17 3 190
-11 268 -2 14 -7 44 -10 67 -5 36 -22 124 -41 213 -8 40 -24 48 -104 55 -111
10 -141 13 -185 19 -22 2 -71 8 -110 12 -38 3 -77 7 -85 9 -9 1 -30 42 -52
101 -21 54 -65 154 -98 221 -33 68 -60 125 -60 127 0 6 36 40 278 264 17 16
32 38 32 49 0 16 -118 187 -165 237 -6 6 -23 27 -39 46 -87 106 -172 190 -193
190 -12 0 -91 -27 -175 -61 -84 -33 -157 -61 -163 -62 -5 -1 -12 -4 -15 -7 -3
-3 -22 -11 -44 -17 -34 -11 -41 -10 -60 9 -11 11 -47 40 -78 65 -32 25 -58 50
-58 54 0 8 88 118 148 184 15 17 49 58 76 93 l49 62 46 -5 c25 -3 57 -8 71
-10 14 -3 30 -2 36 3 38 25 65 245 50 412 -9 109 -17 176 -21 190 -2 8 -6 33
-9 55 -4 33 -30 163 -40 200 -2 6 -6 28 -11 50 -8 44 -38 147 -62 212 -16 43
-42 64 -148 120 -40 21 -166 72 -195 78 -8 2 -16 4 -17 5 -2 2 -6 3 -10 5 -5
1 -15 4 -23 8 -18 7 -165 44 -200 51 -14 3 -50 10 -80 16 -117 23 -114 22
-210 34 -25 3 -55 8 -68 10 -27 6 -191 20 -239 20 -18 1 -33 3 -33 6 0 6 -619
8 -625 2z m1335 -2621 c14 -18 30 -38 36 -45 27 -29 153 -229 186 -296 53
-107 127 -285 118 -285 -1 0 1 -7 4 -15 11 -35 37 -147 40 -175 2 -16 7 -57
11 -90 13 -99 6 -360 -10 -385 -3 -4 -7 -25 -11 -46 -15 -99 -141 -414 -165
-414 -5 0 -9 3 -9 8 0 7 -48 57 -80 84 -93 78 -139 115 -220 174 -52 39 -113
81 -135 94 -22 13 -42 27 -45 30 -3 4 -51 29 -107 56 l-103 49 7 35 c14 80
140 427 164 455 5 5 9 16 9 25 0 9 8 25 18 36 41 43 110 189 126 266 3 13 10
43 16 67 6 24 9 50 6 58 -3 7 -2 13 2 13 12 0 16 70 16 268 l1 173 50 -53 c28
-30 61 -69 75 -87z m-3115 -199 c11 -13 46 -41 78 -62 49 -32 66 -52 109 -127
27 -48 70 -118 94 -155 24 -37 44 -70 44 -72 0 -3 15 -29 34 -58 102 -161 190
-424 212 -634 14 -136 13 -142 -12 -148 -26 -7 -48 -42 -59 -96 -9 -41 -45
-123 -57 -128 -4 -2 -8 -8 -8 -14 0 -15 -88 -98 -136 -129 -39 -26 -87 -50
-167 -83 -44 -18 -40 -21 -108 69 -175 229 -286 497 -326 785 -10 69 -10 360
0 420 30 187 70 317 149 478 l51 102 41 -62 c23 -35 50 -74 61 -86z"/>
</g>
</svg>
