<?xml version="1.0" standalone="no"?>
<!DOCTYPE svg PUBLIC "-//W3C//DTD SVG 20010904//EN"
 "http://www.w3.org/TR/2001/REC-SVG-20010904/DTD/svg10.dtd">
<svg version="1.0" xmlns="http://www.w3.org/2000/svg"
 width="650.000000pt" height="650.000000pt" viewBox="0 0 650.000000 650.000000"
 preserveAspectRatio="xMidYMid meet">
<metadata>
Created by potrace 1.11, written by Peter Selinger 2001-2013
</metadata>
<g transform="translate(0.000000,650.000000) scale(0.100000,-0.100000)"
fill="#000000" stroke="none">
<path d="M3607 6463 c-1 0 -65 -4 -142 -7 -77 -4 -162 -9 -190 -11 -141 -11
-193 -16 -211 -19 -10 -2 -46 -7 -79 -10 -33 -4 -69 -9 -80 -11 -53 -9 -131
-19 -137 -17 -5 1 -8 -3 -8 -9 0 -5 -5 -7 -10 -4 -6 4 -34 1 -61 -5 -37 -9
-53 -18 -59 -35 -7 -19 -29 -29 -75 -35 -3 -1 -24 -8 -47 -16 -24 -9 -47 -17
-53 -18 -12 -2 -69 -24 -112 -42 -17 -8 -33 -14 -36 -14 -2 0 -26 -10 -53 -22
-27 -12 -51 -22 -54 -23 -27 -4 -293 -171 -350 -220 -62 -53 -165 -159 -195
-200 -17 -22 -32 -42 -35 -45 -23 -21 -95 -185 -107 -240 -8 -39 -11 -55 -13
-60 -4 -9 -7 -35 -8 -70 -2 -33 -7 -38 -75 -74 -39 -22 -76 -44 -82 -48 -5 -4
-51 -35 -101 -68 -130 -85 -148 -104 -140 -142 3 -18 13 -39 21 -48 8 -9 15
-24 15 -32 0 -9 3 -18 8 -20 4 -1 17 -23 30 -48 12 -25 44 -85 70 -133 l48
-88 -116 -117 c-63 -65 -133 -141 -155 -170 -46 -61 -32 -60 -210 -16 -55 14
-107 27 -115 29 -8 2 -15 4 -15 5 0 1 -16 3 -35 6 -19 2 -47 9 -61 15 -15 6
-42 9 -60 7 -35 -3 -69 -41 -106 -118 -9 -19 -20 -37 -23 -40 -4 -3 -25 -43
-47 -90 -106 -223 -125 -277 -109 -308 11 -20 186 -142 205 -142 4 0 16 -9 26
-20 10 -11 24 -20 31 -20 7 0 19 -6 26 -13 7 -8 33 -26 57 -41 29 -18 41 -32
37 -42 -9 -22 -47 -213 -51 -254 -2 -19 -7 -64 -10 -100 -8 -73 -6 -69 -31
-75 -11 -2 -66 -15 -124 -29 -338 -78 -321 -69 -314 -179 6 -105 12 -178 18
-212 3 -16 8 -46 11 -65 20 -129 43 -222 58 -237 15 -15 27 -17 147 -28 41 -4
89 -8 105 -11 17 -2 59 -6 95 -10 36 -3 74 -7 85 -9 11 -1 28 -3 37 -4 9 0 19
-11 23 -23 16 -57 94 -241 136 -320 l46 -87 -105 -98 c-160 -149 -212 -199
-212 -210 0 -15 24 -63 33 -63 4 0 7 -5 7 -11 0 -6 6 -16 13 -23 6 -8 19 -24
27 -36 22 -32 101 -134 108 -140 4 -3 32 -34 62 -70 84 -100 147 -160 167
-160 10 0 81 24 158 54 77 30 170 65 207 79 l68 25 69 -58 c63 -52 207 -157
303 -220 28 -19 36 -30 32 -45 -3 -12 -7 -30 -9 -41 -2 -10 -4 -19 -5 -19 -1
0 -3 -9 -6 -20 -3 -17 -37 -152 -48 -195 -18 -67 -22 -98 -14 -116 6 -13 56
-43 136 -82 112 -54 268 -122 282 -124 3 0 14 -4 25 -8 11 -4 46 -17 78 -29
94 -35 99 -32 192 89 27 36 54 70 60 76 5 6 17 22 25 34 8 12 20 28 25 34 6 6
23 27 38 48 l28 36 62 -15 c34 -8 85 -19 112 -24 28 -5 61 -11 75 -14 14 -3
45 -8 70 -11 25 -3 54 -8 65 -11 11 -2 46 -6 78 -8 32 -1 60 -5 63 -8 5 -4 10
-19 95 -262 27 -76 55 -143 62 -147 16 -10 198 -12 317 -3 150 11 212 17 232
21 13 2 41 7 62 9 66 7 64 4 82 258 3 49 7 96 9 105 2 9 4 31 4 48 1 30 2 30
98 53 93 22 279 82 355 115 l37 16 70 -59 c39 -33 77 -65 84 -73 8 -7 33 -29
57 -48 46 -36 84 -70 110 -93 31 -29 58 -29 112 -1 117 61 317 183 346 211 7
7 16 13 20 13 4 0 20 11 36 25 16 14 32 25 36 25 4 0 12 11 18 25 13 28 19 13
-96 225 -19 36 -48 89 -64 117 -27 49 -31 93 -9 93 15 0 197 191 259 273 20
26 43 47 52 47 15 0 313 -70 360 -85 3 -1 26 -5 51 -9 38 -6 50 -5 68 10 11
10 21 22 21 27 0 5 8 21 19 35 62 88 216 428 205 456 -5 14 -5 14 -144 103
-58 37 -106 71 -108 75 -2 5 -8 8 -13 8 -9 0 -129 78 -129 83 0 2 9 45 21 97
11 52 22 108 24 123 2 15 7 44 10 65 3 20 7 66 10 101 3 36 7 66 8 68 2 1 103
26 225 55 247 58 240 54 236 143 -4 71 -18 208 -28 260 -3 17 -8 44 -10 60 -9
61 -37 180 -44 187 -5 5 -35 11 -68 14 -32 3 -70 7 -84 9 -34 4 -149 17 -180
20 -14 1 -54 5 -90 9 l-65 7 -23 64 c-12 35 -27 76 -34 92 -6 15 -11 31 -10
36 1 4 -3 7 -8 7 -6 0 -10 7 -10 15 0 9 -25 63 -55 121 l-55 106 21 29 c11 16
26 32 33 36 11 6 173 155 242 221 26 25 11 62 -60 154 -12 14 -32 41 -46 59
-34 46 -130 160 -150 180 -9 9 -26 27 -36 40 -11 13 -34 37 -52 53 l-31 29
-48 -19 c-26 -10 -50 -19 -53 -20 -3 0 -14 -4 -25 -9 -11 -4 -85 -34 -165 -65
l-145 -56 -86 71 -85 71 59 69 c32 39 66 79 76 90 9 11 46 55 81 98 l64 78 55
-4 c31 -2 61 -6 66 -7 33 -8 43 3 60 63 18 65 23 112 24 237 1 95 -11 255 -25
323 -2 12 -6 36 -8 52 -3 17 -12 64 -21 105 -9 41 -18 84 -19 95 -2 11 -6 27
-10 35 -3 8 -7 26 -10 40 -13 73 -67 216 -87 228 -22 14 -71 42 -105 60 -91
49 -339 129 -489 158 -11 2 -31 6 -45 9 -42 8 -133 24 -175 30 -23 3 -50 7
-60 9 -67 13 -279 29 -387 30 -54 1 -98 3 -98 6 0 4 -249 8 -253 3z"/>
</g>
</svg>
